<svg width="100" height="29" viewBox="0 0 100 29" fill="none" xmlns="http://www.w3.org/2000/svg">
<path d="M18.4332 23.0239H5.97026V16.5284H17.0638C17.1281 16.5308 17.1921 16.5199 17.2519 16.4964C17.3117 16.4728 17.366 16.4373 17.4115 16.3918C17.4569 16.3464 17.4925 16.2921 17.516 16.2322C17.5395 16.1724 17.5504 16.1084 17.5481 16.0442V11.9699C17.5504 11.9057 17.5395 11.8417 17.516 11.7819C17.4925 11.7221 17.4569 11.6678 17.4115 11.6223C17.366 11.5769 17.3117 11.5413 17.2519 11.5178C17.1921 11.4943 17.1281 11.4834 17.0638 11.4857H5.97026V5.4355H17.9906C18.055 5.43825 18.1192 5.42762 18.1792 5.40426C18.2392 5.3809 18.2937 5.34533 18.3392 5.2998C18.3847 5.25428 18.4203 5.19979 18.4437 5.13979C18.467 5.07979 18.4777 5.01559 18.4749 4.95126V0.799063C18.4777 0.734736 18.467 0.670534 18.4437 0.610536C18.4203 0.550537 18.3847 0.496047 18.3392 0.450519C18.2937 0.404992 18.2392 0.369415 18.1792 0.346056C18.1192 0.322696 18.055 0.312061 17.9906 0.314819H0.484695C0.420471 0.312481 0.356461 0.323406 0.29665 0.346914C0.236838 0.370422 0.182509 0.406013 0.137066 0.451454C0.091623 0.496894 0.0560377 0.551212 0.0325284 0.61102C0.00901901 0.670828 -0.00190617 0.734843 0.000431578 0.799063V27.6604C-0.00190617 27.7246 0.00901901 27.7886 0.0325284 27.8484C0.0560377 27.9082 0.091623 27.9625 0.137066 28.008C0.182509 28.0534 0.236838 28.089 0.29665 28.1125C0.356461 28.136 0.420471 28.1469 0.484695 28.1446H18.4332C18.4974 28.1469 18.5614 28.136 18.6212 28.1125C18.681 28.089 18.7353 28.0534 18.7808 28.008C18.8262 27.9625 18.8618 27.9082 18.8853 27.8484C18.9088 27.7886 18.9198 27.7246 18.9174 27.6604V23.5054C18.9194 23.4414 18.9081 23.3777 18.8845 23.3182C18.8608 23.2587 18.8251 23.2047 18.7797 23.1596C18.7343 23.1145 18.6801 23.0791 18.6205 23.0558C18.5609 23.0325 18.4971 23.0216 18.4332 23.0239Z" fill="white"/>
<path d="M34.4448 23.7864C34.4306 23.7093 34.3987 23.6365 34.3515 23.5738C34.3044 23.5111 34.2433 23.4603 34.1732 23.4252C34.103 23.3901 34.0257 23.3718 33.9473 23.3717C33.8688 23.3716 33.7914 23.3897 33.7212 23.4247C33.1631 23.6187 32.5753 23.7129 31.9845 23.7029C30.0502 23.7029 28.7589 22.4534 28.7589 20.4385V12.9245H34.6034C34.6677 12.9268 34.7317 12.9159 34.7915 12.8924C34.8513 12.8689 34.9056 12.8333 34.9511 12.7879C34.9965 12.7424 35.0321 12.6881 35.0556 12.6283C35.0791 12.5685 35.09 12.5045 35.0877 12.4402V9.06727C35.0905 9.00295 35.0798 8.93875 35.0565 8.87875C35.0331 8.81875 34.9975 8.76426 34.952 8.71873C34.9065 8.6732 34.852 8.63763 34.792 8.61428C34.732 8.59092 34.6678 8.58027 34.6034 8.58303H28.7589V3.54306C28.7612 3.47884 28.7503 3.41483 28.7268 3.35502C28.7032 3.29521 28.6677 3.24089 28.6222 3.19545C28.5768 3.15001 28.5225 3.11443 28.4626 3.09092C28.4028 3.06741 28.3388 3.05649 28.2746 3.05883H23.5433C23.479 3.05649 23.415 3.06741 23.3552 3.09092C23.2954 3.11443 23.2411 3.15001 23.1956 3.19545C23.1502 3.24089 23.1146 3.29521 23.0911 3.35502C23.0676 3.41483 23.0567 3.47884 23.059 3.54306V8.58582H20.1673C20.103 8.58306 20.0388 8.59369 19.9788 8.61705C19.9188 8.64041 19.8643 8.67599 19.8188 8.72152C19.7732 8.76704 19.7376 8.82153 19.7143 8.88153C19.6909 8.94153 19.6803 9.00572 19.683 9.07005V12.4486C19.6807 12.5128 19.6916 12.5768 19.7151 12.6366C19.7387 12.6964 19.7742 12.7508 19.8197 12.7962C19.8651 12.8416 19.9195 12.8772 19.9793 12.9007C20.0391 12.9242 20.1031 12.9352 20.1673 12.9328H23.0701V21.5601C23.0701 25.7568 26.0954 28.6205 30.3313 28.6205C32.0005 28.5982 33.6531 28.2865 35.2157 27.6993C35.3109 27.6556 35.3851 27.5763 35.4225 27.4785C35.46 27.3808 35.4577 27.2722 35.4161 27.1761L34.4448 23.7864Z" fill="white"/>
<path d="M45.335 8.09891C39.8911 8.09891 35.0095 11.1602 35.0095 18.382C35.0095 25.6428 39.8494 28.6289 45.4157 28.6289C48.9642 28.6289 52.1119 27.3376 54.1686 25.32C54.2164 25.2808 54.2549 25.2315 54.2813 25.1757C54.3077 25.1199 54.3214 25.0589 54.3214 24.9971C54.3214 24.9354 54.3077 24.8744 54.2813 24.8186C54.2549 24.7627 54.2164 24.7135 54.1686 24.6743L51.8698 22.3756C51.7823 22.2827 51.6626 22.2268 51.5352 22.2196C51.4078 22.2123 51.2825 22.2542 51.1851 22.3366C49.813 23.3441 47.7952 24.1511 46.0224 24.1511C43.1585 24.1511 41.0127 23.2633 40.779 20.0768H54.6112C54.6672 20.081 54.7235 20.0737 54.7767 20.0555C54.8298 20.0372 54.8787 20.0083 54.9204 19.9706C54.962 19.9328 54.9955 19.887 55.0189 19.8359C55.0423 19.7848 55.0551 19.7295 55.0564 19.6733C55.1449 19.0727 55.1849 18.4659 55.1761 17.8588C55.1761 11.2854 50.6201 8.09891 45.335 8.09891ZM40.8179 16.0443C40.9793 13.5396 42.8357 12.0118 45.296 12.0118C47.7563 12.0118 49.4095 13.5035 49.5709 16.0443H40.8179Z" fill="white"/>
<path d="M71.029 8.6639C70.1692 8.31338 69.2521 8.12469 68.3238 8.1073C65.5406 8.1073 63.8485 10.2029 62.9189 12.8662H62.7686L62.8104 11.778L62.6879 9.03404C62.6719 8.91572 62.6149 8.80673 62.527 8.72593C62.4391 8.64513 62.3257 8.5976 62.2064 8.59154H57.759C57.6948 8.58921 57.6308 8.60013 57.5709 8.62364C57.5111 8.64715 57.4568 8.68273 57.4114 8.72817C57.3659 8.77361 57.3303 8.82793 57.3068 8.88774C57.2833 8.94754 57.2724 9.01156 57.2747 9.07578V27.6688C57.2735 27.7324 57.2853 27.7955 57.3094 27.8543C57.3334 27.9131 57.3692 27.9664 57.4145 28.011C57.4598 28.0555 57.5137 28.0903 57.5729 28.1133C57.6322 28.1363 57.6955 28.147 57.759 28.1447H62.5181C62.5824 28.1471 62.6464 28.1361 62.7062 28.1126C62.766 28.0891 62.8203 28.0535 62.8658 28.0081C62.9112 27.9627 62.9468 27.9083 62.9703 27.8485C62.9938 27.7887 63.0048 27.7247 63.0024 27.6605V19.9155C63.0024 16.3672 65.1009 13.3003 68.1679 13.3003C68.7133 13.3104 69.2551 13.3918 69.7794 13.5425C69.8483 13.5691 69.9225 13.5793 69.996 13.5723C70.0695 13.5653 70.1404 13.5412 70.2031 13.5021C70.2657 13.4629 70.3184 13.4097 70.3569 13.3467C70.3955 13.2837 70.4188 13.2125 70.4251 13.1389L71.3129 9.22884C71.3346 9.11654 71.3186 9.0002 71.2672 8.898C71.2159 8.79579 71.1321 8.71347 71.029 8.6639Z" fill="white"/>
<path d="M83.5697 8.09891C79.7791 8.09891 78.4487 9.87166 77.5609 11.0823L77.2826 8.98668C77.2826 8.74456 77.0822 8.58314 76.7983 8.58314H72.9019C72.8376 8.58038 72.7734 8.59103 72.7134 8.61439C72.6534 8.63775 72.5989 8.67332 72.5534 8.71884C72.5078 8.76437 72.4723 8.81886 72.4489 8.87886C72.4255 8.93886 72.4149 9.00306 72.4177 9.06739V27.6604C72.4153 27.7247 72.4263 27.7887 72.4498 27.8485C72.4733 27.9083 72.5089 27.9626 72.5543 28.0081C72.5997 28.0535 72.6541 28.0891 72.7139 28.1126C72.7737 28.1361 72.8377 28.147 72.9019 28.1447H77.6193C77.6836 28.147 77.7476 28.1361 77.8074 28.1126C77.8672 28.0891 77.9215 28.0535 77.967 28.0081C78.0124 27.9626 78.048 27.9083 78.0715 27.8485C78.095 27.7887 78.1059 27.7247 78.1036 27.6604V16.7289C78.1046 16.2352 78.204 15.7466 78.3958 15.2917C78.5877 14.8368 78.8683 14.4247 79.2211 14.0794C79.574 13.734 79.9921 13.4624 80.451 13.2804C80.91 13.0984 81.4006 13.0096 81.8942 13.0192C82.8228 13.0265 83.7112 13.3986 84.3678 14.0551C85.0244 14.7117 85.3965 15.6001 85.4038 16.5285V27.6604C85.4016 27.723 85.4119 27.7854 85.4342 27.8439C85.4565 27.9023 85.4904 27.9557 85.5337 28.0009C85.5771 28.0461 85.629 28.0821 85.6866 28.1068C85.7441 28.1315 85.806 28.1444 85.8686 28.1447H90.547C90.6112 28.147 90.6753 28.1361 90.7351 28.1126C90.7949 28.0891 90.8492 28.0535 90.8946 28.0081C90.9401 27.9626 90.9757 27.9083 90.9992 27.8485C91.0227 27.7887 91.0336 27.7247 91.0313 27.6604V14.9534C91.0313 10.8401 87.6832 8.09891 83.5697 8.09891Z" fill="white"/>
<path d="M99.506 0.31485H94.7747C94.704 0.3185 94.6347 0.336709 94.5714 0.368339C94.508 0.399968 94.4518 0.444339 94.4063 0.498672C94.3609 0.553005 94.3271 0.616134 94.3072 0.684107C94.2873 0.752081 94.2816 0.823438 94.2905 0.893714V27.5658C94.282 27.636 94.288 27.7072 94.3081 27.775C94.3282 27.8428 94.362 27.9057 94.4073 27.96C94.4527 28.0142 94.5087 28.0586 94.5719 28.0903C94.6351 28.1221 94.7041 28.1406 94.7747 28.1446H99.506C99.5766 28.1406 99.6457 28.1221 99.7089 28.0903C99.772 28.0586 99.8281 28.0142 99.8734 27.96C99.9188 27.9057 99.9526 27.8428 99.9727 27.775C99.9928 27.7072 99.9988 27.636 99.9903 27.5658V0.893714C99.9992 0.823438 99.9935 0.752081 99.9736 0.684107C99.9536 0.616134 99.9199 0.553005 99.8744 0.498672C99.829 0.444339 99.7728 0.399968 99.7094 0.368339C99.646 0.336709 99.5768 0.3185 99.506 0.31485Z" fill="white"/>
</svg>
