<?xml version="1.0" encoding="UTF-8"?>
<svg id="Ebene_1" xmlns="http://www.w3.org/2000/svg" xmlns:xlink="http://www.w3.org/1999/xlink" version="1.1" viewBox="0 0 1300 1300">
  <!-- Generator: Adobe Illustrator 29.3.0, SVG Export Plug-In . SVG Version: 2.1.0 Build 146)  -->
  <defs>
    <style>
      .st0 {
        fill: url(#Unbenannter_Verlauf_14);
      }

      .st0, .st1 {
        fill-opacity: .1;
      }

      .st1 {
        fill: url(#Unbenannter_Verlauf_20);
      }

      .st2 {
        fill: url(#Unbenannter_Verlauf_17);
      }

      .st2, .st3, .st4 {
        fill-opacity: .1;
      }

      .st3 {
        fill: url(#Unbenannter_Verlauf_23);
      }

      .st5 {
        fill: url(#Unbenannter_Verlauf_15);
      }

      .st5, .st6, .st7, .st8 {
        fill-opacity: .4;
      }

      .st9 {
        fill: url(#Unbenannter_Verlauf_13);
      }

      .st9, .st10, .st11, .st12, .st13, .st14, .st15, .st16, .st17 {
        fill-opacity: .2;
      }

      .st10 {
        fill: url(#Unbenannter_Verlauf_19);
      }

      .st11 {
        fill: url(#Unbenannter_Verlauf_16);
      }

      .st12 {
        fill: url(#Unbenannter_Verlauf_26);
      }

      .st13 {
        fill: url(#Unbenannter_Verlauf_22);
      }

      .st14 {
        fill: url(#Unbenannter_Verlauf_25);
      }

      .st18 {
        fill: url(#Unbenannter_Verlauf_18);
      }

      .st18, .st19, .st20, .st21, .st22, .st23 {
        fill-opacity: .3;
      }

      .st19 {
        fill: url(#Unbenannter_Verlauf_21);
      }

      .st20 {
        fill: url(#Unbenannter_Verlauf_24);
      }

      .st24 {
        stroke: #dadada;
      }

      .st24, .st25, .st26, .st27, .st28, .st29, .st30, .st31, .st32, .st33, .st34, .st35, .st36, .st37, .st38, .st39, .st40 {
        fill: none;
      }

      .st24, .st25, .st36, .st6, .st7, .st8 {
        opacity: .4;
      }

      .st24, .st25, .st36, .st6, .st7, .st8, .st41 {
        isolation: isolate;
      }

      .st21 {
        fill: url(#Unbenannter_Verlauf_7);
      }

      .st22 {
        fill: url(#Unbenannter_Verlauf_5);
      }

      .st23 {
        fill: url(#Unbenannter_Verlauf_2);
      }

      .st15 {
        fill: url(#Unbenannter_Verlauf_6);
      }

      .st16 {
        fill: url(#Unbenannter_Verlauf_3);
      }

      .st4 {
        fill: url(#Unbenannter_Verlauf_4);
      }

      .st17 {
        fill: url(#Unbenannter_Verlauf);
      }

      .st42, .st41 {
        fill: #171717;
      }

      .st25, .st30, .st37 {
        stroke: #e0e0e0;
      }

      .st26 {
        stroke: #e3e3e3;
      }

      .st26, .st27, .st28, .st31, .st32, .st33, .st34, .st35, .st37, .st38, .st39, .st40 {
        stroke-miterlimit: 4.7;
      }

      .st26, .st27, .st28, .st32, .st33, .st34, .st35, .st37, .st38, .st39, .st40 {
        stroke-width: 1.2px;
      }

      .st27 {
        stroke: #f0f0f0;
      }

      .st28 {
        stroke: #ff5574;
      }

      .st29 {
        stroke-width: 4.3px;
      }

      .st29, .st31, .st36 {
        stroke: #fff;
      }

      .st43 {
        fill: #fff;
      }

      .st31 {
        stroke-width: 5px;
      }

      .st32 {
        stroke: #d5d5d5;
      }

      .st44 {
        fill: #f8f8f8;
      }

      .st33 {
        stroke: url(#Unbenannter_Verlauf_12);
      }

      .st34 {
        stroke: url(#Unbenannter_Verlauf_10);
      }

      .st35 {
        stroke: url(#Unbenannter_Verlauf_11);
      }

      .st45, .st41 {
        opacity: .1;
      }

      .st46 {
        opacity: 0;
      }

      .st47 {
        fill: url(#Unbenannter_Verlauf_27);
      }

      .st48 {
        fill: url(#Unbenannter_Verlauf_28);
      }

      .st6 {
        fill: url(#Unbenannter_Verlauf_31);
      }

      .st7 {
        fill: url(#Unbenannter_Verlauf_30);
      }

      .st8 {
        fill: url(#Unbenannter_Verlauf_29);
      }

      .st38 {
        stroke: #000;
        stroke-opacity: 0;
      }

      .st49 {
        fill: #e8e8e8;
      }

      .st39 {
        stroke: url(#Unbenannter_Verlauf_9);
      }

      .st40 {
        stroke: url(#Unbenannter_Verlauf_8);
      }
    </style>
    <linearGradient id="Unbenannter_Verlauf" data-name="Unbenannter Verlauf" x1="558.8" y1="767.1" x2="398.5" y2="863.6" gradientTransform="translate(-116 1538.5) scale(1.2 -1.2)" gradientUnits="userSpaceOnUse">
      <stop offset="0" stop-color="#eaeaea"/>
      <stop offset="1" stop-color="#eaeaea" stop-opacity="0"/>
    </linearGradient>
    <linearGradient id="Unbenannter_Verlauf_2" data-name="Unbenannter Verlauf 2" x1="993.5" y1="1349.4" x2="875.2" y2="1537.5" gradientTransform="translate(1002.6 1971.6) rotate(-30) scale(1.2 -1) skewX(-26.6)" gradientUnits="userSpaceOnUse">
      <stop offset="0" stop-color="#efefef" stop-opacity="0"/>
      <stop offset="1" stop-color="#c1c1c1"/>
    </linearGradient>
    <linearGradient id="Unbenannter_Verlauf_3" data-name="Unbenannter Verlauf 3" x1="558.8" y1="839.7" x2="398.5" y2="936.2" gradientTransform="translate(-116 1538.5) scale(1.2 -1.2)" gradientUnits="userSpaceOnUse">
      <stop offset="0" stop-color="#eaeaea"/>
      <stop offset="1" stop-color="#eaeaea" stop-opacity="0"/>
    </linearGradient>
    <linearGradient id="Unbenannter_Verlauf_4" data-name="Unbenannter Verlauf 4" x1="558.8" y1="839.7" x2="398.5" y2="936.2" gradientTransform="translate(-116 1538.5) scale(1.2 -1.2)" gradientUnits="userSpaceOnUse">
      <stop offset="0" stop-color="gray"/>
      <stop offset="1" stop-color="#eaeaea" stop-opacity="0"/>
    </linearGradient>
    <linearGradient id="Unbenannter_Verlauf_5" data-name="Unbenannter Verlauf 5" x1="993.5" y1="1349.4" x2="875.2" y2="1537.5" gradientTransform="translate(1002.6 1885.8) rotate(-30) scale(1.2 -1) skewX(-26.6)" gradientUnits="userSpaceOnUse">
      <stop offset="0" stop-color="#efefef" stop-opacity="0"/>
      <stop offset="1" stop-color="#c1c1c1"/>
    </linearGradient>
    <linearGradient id="Unbenannter_Verlauf_6" data-name="Unbenannter Verlauf 6" x1="558.8" y1="906.5" x2="398.5" y2="1003" gradientTransform="translate(-116 1538.5) scale(1.2 -1.2)" gradientUnits="userSpaceOnUse">
      <stop offset="0" stop-color="gray"/>
      <stop offset="1" stop-color="#eaeaea" stop-opacity="0"/>
    </linearGradient>
    <linearGradient id="Unbenannter_Verlauf_7" data-name="Unbenannter Verlauf 7" x1="993.5" y1="1349.4" x2="875.2" y2="1537.5" gradientTransform="translate(1002.6 1806.9) rotate(-30) scale(1.2 -1) skewX(-26.6)" gradientUnits="userSpaceOnUse">
      <stop offset="0" stop-color="#efefef" stop-opacity="0"/>
      <stop offset="1" stop-color="#c1c1c1"/>
    </linearGradient>
    <linearGradient id="Unbenannter_Verlauf_8" data-name="Unbenannter Verlauf 8" x1="373.3" y1="708.4" x2="636.6" y2="428.1" gradientTransform="translate(-116 1538.5) scale(1.2 -1.2)" gradientUnits="userSpaceOnUse">
      <stop offset="0" stop-color="#44fff9"/>
      <stop offset=".2" stop-color="#7188ff"/>
      <stop offset=".5" stop-color="#ff5178"/>
      <stop offset=".7" stop-color="#ffb719"/>
      <stop offset="1" stop-color="#d153d1"/>
    </linearGradient>
    <linearGradient id="Unbenannter_Verlauf_9" data-name="Unbenannter Verlauf 9" x1="227.8" y1="563.9" x2="491.1" y2="283.5" gradientTransform="translate(-116 1538.5) scale(1.2 -1.2)" gradientUnits="userSpaceOnUse">
      <stop offset="0" stop-color="#44fff9"/>
      <stop offset=".2" stop-color="#7188ff"/>
      <stop offset=".5" stop-color="#ff5178"/>
      <stop offset=".7" stop-color="#ffb719"/>
      <stop offset="1" stop-color="#d153d1"/>
    </linearGradient>
    <linearGradient id="Unbenannter_Verlauf_10" data-name="Unbenannter Verlauf 10" x1="246" y1="557.6" x2="509.4" y2="277.3" gradientTransform="translate(-116 1538.5) scale(1.2 -1.2)" gradientUnits="userSpaceOnUse">
      <stop offset="0" stop-color="#44fff9"/>
      <stop offset=".2" stop-color="#7188ff"/>
      <stop offset=".5" stop-color="#ff5178"/>
      <stop offset=".7" stop-color="#ffb719"/>
      <stop offset="1" stop-color="#d153d1"/>
    </linearGradient>
    <linearGradient id="Unbenannter_Verlauf_11" data-name="Unbenannter Verlauf 11" x1="263.9" y1="551.3" x2="527.3" y2="271" gradientTransform="translate(-116 1538.5) scale(1.2 -1.2)" gradientUnits="userSpaceOnUse">
      <stop offset="0" stop-color="#44fff9"/>
      <stop offset=".2" stop-color="#7188ff"/>
      <stop offset=".5" stop-color="#ff5178"/>
      <stop offset=".7" stop-color="#ffb719"/>
      <stop offset="1" stop-color="#d153d1"/>
    </linearGradient>
    <linearGradient id="Unbenannter_Verlauf_12" data-name="Unbenannter Verlauf 12" x1="280.7" y1="543.4" x2="544.1" y2="263.1" gradientTransform="translate(-116 1538.5) scale(1.2 -1.2)" gradientUnits="userSpaceOnUse">
      <stop offset="0" stop-color="#44fff9"/>
      <stop offset=".2" stop-color="#7188ff"/>
      <stop offset=".5" stop-color="#ff5178"/>
      <stop offset=".7" stop-color="#ffb719"/>
      <stop offset="1" stop-color="#d153d1"/>
    </linearGradient>
    <linearGradient id="Unbenannter_Verlauf_13" data-name="Unbenannter Verlauf 13" x1="711.4" y1="672.5" x2="551.1" y2="769" gradientTransform="translate(-116 1538.5) scale(1.2 -1.2)" gradientUnits="userSpaceOnUse">
      <stop offset="0" stop-color="#eaeaea"/>
      <stop offset="1" stop-color="#eaeaea" stop-opacity="0"/>
    </linearGradient>
    <linearGradient id="Unbenannter_Verlauf_14" data-name="Unbenannter Verlauf 14" x1="711.4" y1="672.5" x2="551.1" y2="769" gradientTransform="translate(-116 1538.5) scale(1.2 -1.2)" gradientUnits="userSpaceOnUse">
      <stop offset="0" stop-color="gray"/>
      <stop offset="1" stop-color="#eaeaea" stop-opacity="0"/>
    </linearGradient>
    <linearGradient id="Unbenannter_Verlauf_15" data-name="Unbenannter Verlauf 15" x1="993.5" y1="1349.4" x2="875.2" y2="1537.5" gradientTransform="translate(1182.9 2083.4) rotate(-30) scale(1.2 -1) skewX(-26.6)" gradientUnits="userSpaceOnUse">
      <stop offset="0" stop-color="#efefef" stop-opacity="0"/>
      <stop offset="1" stop-color="#c1c1c1"/>
    </linearGradient>
    <linearGradient id="Unbenannter_Verlauf_16" data-name="Unbenannter Verlauf 16" x1="711.4" y1="745.1" x2="551.1" y2="841.6" gradientTransform="translate(-116 1538.5) scale(1.2 -1.2)" gradientUnits="userSpaceOnUse">
      <stop offset="0" stop-color="#eaeaea"/>
      <stop offset="1" stop-color="#eaeaea" stop-opacity="0"/>
    </linearGradient>
    <linearGradient id="Unbenannter_Verlauf_17" data-name="Unbenannter Verlauf 17" x1="711.4" y1="745.1" x2="551.1" y2="841.6" gradientTransform="translate(-116 1538.5) scale(1.2 -1.2)" gradientUnits="userSpaceOnUse">
      <stop offset="0" stop-color="gray"/>
      <stop offset="1" stop-color="#eaeaea" stop-opacity="0"/>
    </linearGradient>
    <linearGradient id="Unbenannter_Verlauf_18" data-name="Unbenannter Verlauf 18" x1="993.5" y1="1349.4" x2="875.2" y2="1537.5" gradientTransform="translate(1182.9 1997.6) rotate(-30) scale(1.2 -1) skewX(-26.6)" gradientUnits="userSpaceOnUse">
      <stop offset="0" stop-color="#efefef" stop-opacity="0"/>
      <stop offset="1" stop-color="#c1c1c1"/>
    </linearGradient>
    <linearGradient id="Unbenannter_Verlauf_19" data-name="Unbenannter Verlauf 19" x1="545.3" y1="585.9" x2="236.9" y2="812.9" gradientTransform="translate(-116 1538.5) scale(1.2 -1.2)" gradientUnits="userSpaceOnUse">
      <stop offset="0" stop-color="#eaeaea"/>
      <stop offset="1" stop-color="#eaeaea" stop-opacity="0"/>
    </linearGradient>
    <linearGradient id="Unbenannter_Verlauf_20" data-name="Unbenannter Verlauf 20" x1="558.8" y1="584.1" x2="398.5" y2="680.6" gradientTransform="translate(-116 1538.5) scale(1.2 -1.2)" gradientUnits="userSpaceOnUse">
      <stop offset="0" stop-color="gray"/>
      <stop offset="1" stop-color="#eaeaea" stop-opacity="0"/>
    </linearGradient>
    <linearGradient id="Unbenannter_Verlauf_21" data-name="Unbenannter Verlauf 21" x1="993.5" y1="1349.4" x2="875.2" y2="1537.5" gradientTransform="translate(1002.6 2187.9) rotate(-30) scale(1.2 -1) skewX(-26.6)" gradientUnits="userSpaceOnUse">
      <stop offset="0" stop-color="#efefef" stop-opacity="0"/>
      <stop offset="1" stop-color="#c1c1c1"/>
    </linearGradient>
    <linearGradient id="Unbenannter_Verlauf_22" data-name="Unbenannter Verlauf 22" x1="558.8" y1="656.7" x2="398.5" y2="753.2" gradientTransform="translate(-116 1538.5) scale(1.2 -1.2)" gradientUnits="userSpaceOnUse">
      <stop offset="0" stop-color="#eaeaea"/>
      <stop offset="1" stop-color="#eaeaea" stop-opacity="0"/>
    </linearGradient>
    <linearGradient id="Unbenannter_Verlauf_23" data-name="Unbenannter Verlauf 23" x1="558.8" y1="656.7" x2="398.5" y2="753.2" gradientTransform="translate(-116 1538.5) scale(1.2 -1.2)" gradientUnits="userSpaceOnUse">
      <stop offset="0" stop-color="gray"/>
      <stop offset="1" stop-color="#eaeaea" stop-opacity="0"/>
    </linearGradient>
    <linearGradient id="Unbenannter_Verlauf_24" data-name="Unbenannter Verlauf 24" x1="993.5" y1="1349.4" x2="875.2" y2="1537.5" gradientTransform="translate(1002.6 2102.1) rotate(-30) scale(1.2 -1) skewX(-26.6)" gradientUnits="userSpaceOnUse">
      <stop offset="0" stop-color="#efefef" stop-opacity="0"/>
      <stop offset="1" stop-color="#c1c1c1"/>
    </linearGradient>
    <linearGradient id="Unbenannter_Verlauf_25" data-name="Unbenannter Verlauf 25" x1="558.8" y1="723.5" x2="398.5" y2="820" gradientTransform="translate(-116 1538.5) scale(1.2 -1.2)" gradientUnits="userSpaceOnUse">
      <stop offset="0" stop-color="#eaeaea"/>
      <stop offset="1" stop-color="#eaeaea" stop-opacity="0"/>
    </linearGradient>
    <linearGradient id="Unbenannter_Verlauf_26" data-name="Unbenannter Verlauf 26" x1="558.8" y1="723.5" x2="398.5" y2="820" gradientTransform="translate(-116 1538.5) scale(1.2 -1.2)" gradientUnits="userSpaceOnUse">
      <stop offset="0" stop-color="gray"/>
      <stop offset="1" stop-color="#eaeaea" stop-opacity="0"/>
    </linearGradient>
    <linearGradient id="Unbenannter_Verlauf_27" data-name="Unbenannter Verlauf 27" x1="636.8" y1="1447.7" x2="1224.8" y2="1449.3" gradientTransform="translate(1002.6 2023.1) rotate(-30) scale(1.2 -1) skewX(-26.6)" gradientUnits="userSpaceOnUse">
      <stop offset="0" stop-color="#44fff9"/>
      <stop offset=".2" stop-color="#7188ff"/>
      <stop offset=".5" stop-color="#ff5178"/>
      <stop offset=".8" stop-color="#ffb719"/>
      <stop offset="1" stop-color="#d153d1"/>
    </linearGradient>
    <linearGradient id="Unbenannter_Verlauf_28" data-name="Unbenannter Verlauf 28" x1="557.1" y1="583.4" x2="325.8" y2="588.1" gradientTransform="translate(-116 1538.5) scale(1.2 -1.2)" gradientUnits="userSpaceOnUse">
      <stop offset="0" stop-color="#44fff9"/>
      <stop offset=".2" stop-color="#7188ff"/>
      <stop offset=".5" stop-color="#ff5178"/>
      <stop offset=".8" stop-color="#ffb719"/>
      <stop offset="1" stop-color="#d153d1"/>
    </linearGradient>
    <linearGradient id="Unbenannter_Verlauf_29" data-name="Unbenannter Verlauf 29" x1="383.2" y1="987" x2="354.7" y2="1044.5" gradientTransform="translate(-116 1538.5) scale(1.2 -1.2)" gradientUnits="userSpaceOnUse">
      <stop offset="0" stop-color="#efefef" stop-opacity="0"/>
      <stop offset="1" stop-color="#c1c1c1"/>
    </linearGradient>
    <linearGradient id="Unbenannter_Verlauf_30" data-name="Unbenannter Verlauf 30" x1="718.3" y1="882.7" x2="685.7" y2="951.4" gradientTransform="translate(-116 1538.5) scale(1.2 -1.2)" gradientUnits="userSpaceOnUse">
      <stop offset="0" stop-color="#efefef" stop-opacity="0"/>
      <stop offset="1" stop-color="#c1c1c1"/>
    </linearGradient>
    <linearGradient id="Unbenannter_Verlauf_31" data-name="Unbenannter Verlauf 31" x1="121.9" y1="72.2" x2="85.9" y2="147.9" gradientTransform="translate(129.2 415.2) scale(1.2)" gradientUnits="userSpaceOnUse">
      <stop offset="0" stop-color="#fff" stop-opacity="0"/>
      <stop offset="1" stop-color="#ff6d5e"/>
    </linearGradient>
  </defs>
  <path class="st49" d="M68.3,718.8L1302.7,6.1c20.7-12,54.4-12,75.1,0l1234.4,712.7c20.7,12,20.7,31.4,0,43.4l-1234.4,712.7c-20.7,12-54.4,12-75.1,0L68.3,762.2c-20.7-12-20.7-31.4,0-43.4Z"/>
  <path class="st30" d="M346.7,652.3l120.8-69.7c3.1-1.8,8.1-1.8,11.3,0l120.8,69.7c3.1,1.8,3.1,4.7,0,6.5l-120.8,69.7c-3.1,1.8-8.1,1.8-11.3,0l-120.8-69.7c-3.1-1.8-3.1-4.7,0-6.5Z"/>
  <path class="st43" d="M479.1,684.8l120.4-69.5c1.6-.9,2.5-2.2,2.5-3.5v-45.4c0-2.8-3.9-5-8.7-5h-240.9c-4.8,0-8.7,2.2-8.7,5v45.4c0,1.3.9,2.6,2.5,3.5l120.4,69.5c3.4,2,8.9,2,12.3,0Z"/>
  <path class="st17" d="M479.1,684.8l120.4-69.5c1.6-.9,2.5-2.2,2.5-3.5v-45.4c0-2.8-3.9-5-8.7-5h-240.9c-4.8,0-8.7,2.2-8.7,5v45.4c0,1.3.9,2.6,2.5,3.5l120.4,69.5c3.4,2,8.9,2,12.3,0Z"/>
  <path class="st38" d="M599.1,614.9l-120.4,69.5c-3.1,1.8-8.1,1.8-11.3,0l-120.4-69.5c-1.5-.9-2.3-2-2.3-3.2v-45.4c0-2.5,3.6-4.6,8-4.6h240.9c4.4,0,8,2.1,8,4.6v45.4c0,1.2-.8,2.4-2.3,3.2Z"/>
  <path class="st43" d="M346.2,561.9l120.8-69.7c3.4-2,8.9-2,12.3,0l120.8,69.7c3.4,2,3.4,5.1,0,7.1l-120.8,69.7c-3.4,2-8.9,2-12.3,0l-120.8-69.7c-3.4-2-3.4-5.1,0-7.1Z"/>
  <path class="st23" d="M346.2,561.9l120.8-69.7c3.4-2,8.9-2,12.3,0l120.8,69.7c3.4,2,3.4,5.1,0,7.1l-120.8,69.7c-3.4,2-8.9,2-12.3,0l-120.8-69.7c-3.4-2-3.4-5.1,0-7.1Z"/>
  <path class="st25" d="M384.3,562.4l83.5-48.2c3.1-1.8,8.1-1.8,11.3,0l83.5,48.2c3.1,1.8,3.1,4.7,0,6.5l-83.5,48.2c-3.1,1.8-8.1,1.8-11.3,0l-83.5-48.2c-3.1-1.8-3.1-4.7,0-6.5Z"/>
  <g class="st45">
    <path class="st42" d="M495,644.1l5.1-2.9c.6-.3,1,0,1,.6v5.9c0,.7-.5,1.4-1,1.8l-5.1,2.9c-.6.3-1,0-1-.6v-5.9c0-.7.5-1.4,1-1.8Z"/>
    <path class="st42" d="M519.5,642.7l5.1-2.9c.6-.3,1,0,1,.6v5.9c0,.7-.5,1.4-1,1.8l-5.1,2.9c-.6.3-1,0-1-.6v-5.9c0-.7.5-1.4,1-1.8Z"/>
    <path class="st42" d="M531.6,621.6l5.1-2.9c.6-.3,1,0,1,.6v5.9c0,.7-.5,1.4-1,1.8l-5.1,2.9c-.6.3-1,0-1-.6v-5.9c0-.7.5-1.4,1-1.8Z"/>
    <path class="st42" d="M507.1,636.7l5.1-2.9c.6-.3,1,0,1,.6v5.9c0,.7-.5,1.4-1,1.8l-5.1,2.9c-.6.3-1,0-1-.6v-5.9c0-.7.5-1.4,1-1.8Z"/>
    <path class="st42" d="M543.7,614.2l5.1-2.9c.6-.3,1,0,1,.6v5.9c0,.7-.5,1.4-1,1.8l-5.1,2.9c-.6.3-1,0-1-.6v-5.9c0-.7.5-1.4,1-1.8Z"/>
    <path class="st42" d="M543.7,627.8l5.1-2.9c.6-.3,1,0,1,.6v5.9c0,.7-.5,1.4-1,1.8l-5.1,2.9c-.6.3-1,0-1-.6v-5.9c0-.7.5-1.4,1-1.8Z"/>
    <path class="st42" d="M580.3,605.4l5.1-2.9c.6-.3,1,0,1,.6v5.9c0,.7-.5,1.4-1,1.8l-5.1,2.9c-.6.3-1,0-1-.6v-5.9c0-.7.5-1.4,1-1.8Z"/>
  </g>
  <path class="st43" d="M479.1,599l120.4-69.5c1.6-.9,2.5-2.2,2.5-3.5v-45.4c0-2.8-3.9-5-8.7-5h-240.9c-4.8,0-8.7,2.2-8.7,5v45.4c0,1.3.9,2.6,2.5,3.5l120.4,69.5c3.4,2,8.9,2,12.3,0Z"/>
  <path class="st16" d="M479.1,599l120.4-69.5c1.6-.9,2.5-2.2,2.5-3.5v-45.4c0-2.8-3.9-5-8.7-5h-240.9c-4.8,0-8.7,2.2-8.7,5v45.4c0,1.3.9,2.6,2.5,3.5l120.4,69.5c3.4,2,8.9,2,12.3,0Z"/>
  <path class="st4" d="M479.1,599l120.4-69.5c1.6-.9,2.5-2.2,2.5-3.5v-45.4c0-2.8-3.9-5-8.7-5h-240.9c-4.8,0-8.7,2.2-8.7,5v45.4c0,1.3.9,2.6,2.5,3.5l120.4,69.5c3.4,2,8.9,2,12.3,0Z"/>
  <path class="st38" d="M599.1,529.1l-120.4,69.5c-3.1,1.8-8.1,1.8-11.3,0l-120.4-69.5c-1.5-.9-2.3-2-2.3-3.2v-45.4c0-2.5,3.6-4.6,8-4.6h240.9c4.4,0,8,2.1,8,4.6v45.4c0,1.2-.8,2.4-2.3,3.2Z"/>
  <path class="st43" d="M346.2,476.1l120.8-69.7c3.4-2,8.9-2,12.3,0l120.8,69.7c3.4,2,3.4,5.1,0,7.1l-120.8,69.7c-3.4,2-8.9,2-12.3,0l-120.8-69.7c-3.4-2-3.4-5.1,0-7.1Z"/>
  <path class="st22" d="M346.2,476.1l120.8-69.7c3.4-2,8.9-2,12.3,0l120.8,69.7c3.4,2,3.4,5.1,0,7.1l-120.8,69.7c-3.4,2-8.9,2-12.3,0l-120.8-69.7c-3.4-2-3.4-5.1,0-7.1Z"/>
  <path class="st24" d="M384.3,476.6l83.5-48.2c3.1-1.8,8.1-1.8,11.3,0l83.5,48.2c3.1,1.8,3.1,4.7,0,6.5l-83.5,48.2c-3.1,1.8-8.1,1.8-11.3,0l-83.5-48.2c-3.1-1.8-3.1-4.7,0-6.5Z"/>
  <g class="st46">
    <path class="st42" d="M495,558.3l5.1-2.9c.6-.3,1,0,1,.6v5.9c0,.7-.5,1.4-1,1.8l-5.1,2.9c-.6.3-1,0-1-.6v-5.9c0-.7.5-1.4,1-1.8Z"/>
    <path class="st42" d="M519.5,556.9l5.1-2.9c.6-.3,1,0,1,.6v5.9c0,.7-.5,1.4-1,1.8l-5.1,2.9c-.6.3-1,0-1-.6v-5.9c0-.7.5-1.4,1-1.8Z"/>
    <path class="st42" d="M531.6,535.8l5.1-2.9c.6-.3,1,0,1,.6v5.9c0,.7-.5,1.4-1,1.8l-5.1,2.9c-.6.3-1,0-1-.6v-5.9c0-.7.5-1.4,1-1.8Z"/>
    <path class="st42" d="M507.1,550.9l5.1-2.9c.6-.3,1,0,1,.6v5.9c0,.7-.5,1.4-1,1.8l-5.1,2.9c-.6.3-1,0-1-.6v-5.9c0-.7.5-1.4,1-1.8Z"/>
    <path class="st42" d="M543.7,528.4l5.1-2.9c.6-.3,1,0,1,.6v5.9c0,.7-.5,1.4-1,1.8l-5.1,2.9c-.6.3-1,0-1-.6v-5.9c0-.7.5-1.4,1-1.8Z"/>
    <path class="st42" d="M568.2,527l5.1-2.9c.6-.3,1,0,1,.6v5.9c0,.7-.5,1.4-1,1.8l-5.1,2.9c-.6.3-1,0-1-.6v-5.9c0-.7.5-1.4,1-1.8Z"/>
    <path class="st42" d="M519.1,543.4l5.1-2.9c.6-.3,1,0,1,.6v5.9c0,.7-.5,1.4-1,1.8l-5.1,2.9c-.6.3-1,0-1-.6v-5.9c0-.7.5-1.4,1-1.8Z"/>
    <path class="st42" d="M543.7,542l5.1-2.9c.6-.3,1,0,1,.6v5.9c0,.7-.5,1.4-1,1.8l-5.1,2.9c-.6.3-1,0-1-.6v-5.9c0-.7.5-1.4,1-1.8Z"/>
    <path class="st42" d="M555.8,521l5.1-2.9c.6-.3,1,0,1,.6v5.9c0,.7-.5,1.4-1,1.8l-5.1,2.9c-.6.3-1,0-1-.6v-5.9c0-.7.5-1.4,1-1.8Z"/>
    <path class="st42" d="M580.3,519.6l5.1-2.9c.6-.3,1,0,1,.6v5.9c0,.7-.5,1.4-1,1.8l-5.1,2.9c-.6.3-1,0-1-.6v-5.9c0-.7.5-1.4,1-1.8Z"/>
  </g>
  <path class="st43" d="M479.1,520l120.4-69.5c1.6-.9,2.5-2.2,2.5-3.5v-45.4c0-2.8-3.9-5-8.7-5h-240.9c-4.8,0-8.7,2.2-8.7,5v45.4c0,1.3.9,2.6,2.5,3.5l120.4,69.5c3.4,2,8.9,2,12.3,0Z"/>
  <path class="st15" d="M479.1,520l120.4-69.5c1.6-.9,2.5-2.2,2.5-3.5v-45.4c0-2.8-3.9-5-8.7-5h-240.9c-4.8,0-8.7,2.2-8.7,5v45.4c0,1.3.9,2.6,2.5,3.5l120.4,69.5c3.4,2,8.9,2,12.3,0Z"/>
  <path class="st38" d="M599.1,450.2l-120.4,69.5c-3.1,1.8-8.1,1.8-11.3,0l-120.4-69.5c-1.5-.9-2.3-2-2.3-3.2v-45.4c0-2.5,3.6-4.6,8-4.6h240.9c4.4,0,8,2.1,8,4.6v45.4c0,1.2-.8,2.4-2.3,3.2Z"/>
  <path class="st43" d="M346.2,397.1l120.8-69.7c3.4-2,8.9-2,12.3,0l120.8,69.7c3.4,2,3.4,5.1,0,7.1l-120.8,69.7c-3.4,2-8.9,2-12.3,0l-120.8-69.7c-3.4-2-3.4-5.1,0-7.1Z"/>
  <path class="st21" d="M346.2,397.1l120.8-69.7c3.4-2,8.9-2,12.3,0l120.8,69.7c3.4,2,3.4,5.1,0,7.1l-120.8,69.7c-3.4,2-8.9,2-12.3,0l-120.8-69.7c-3.4-2-3.4-5.1,0-7.1Z"/>
  <g class="st46">
    <path class="st42" d="M585.4,446l-5.1,2.9c-.6.3-1,0-1-.6v-5.9c0-.7.5-1.4,1-1.8l5.1-2.9c.6-.3,1,0,1,.6v5.9c0,.7-.5,1.4-1,1.8Z"/>
    <path class="st42" d="M560.9,447.4l-5.1,2.9c-.6.3-1,0-1-.6v-5.9c0-.7.5-1.4,1-1.8l5.1-2.9c.6-.3,1,0,1,.6v5.9c0,.7-.5,1.4-1,1.8Z"/>
    <path class="st42" d="M573.3,453.4l-5.1,2.9c-.6.3-1,0-1-.6v-5.9c0-.7.5-1.4,1-1.8l5.1-2.9c.6-.3,1,0,1,.6v5.9c0,.7-.5,1.4-1,1.8Z"/>
    <path class="st42" d="M512.1,477.2l-5.1,2.9c-.6.3-1,0-1-.6v-5.9c0-.7.5-1.4,1-1.8l5.1-2.9c.6-.3,1,0,1,.6v5.9c0,.7-.5,1.4-1,1.8Z"/>
    <path class="st42" d="M561.2,460.8l-5.1,2.9c-.6.3-1,0-1-.6v-5.9c0-.7.5-1.4,1-1.8l5.1-2.9c.6-.3,1,0,1,.6v5.9c0,.7-.5,1.4-1,1.8Z"/>
    <path class="st42" d="M536.7,462.2l-5.1,2.9c-.6.3-1,0-1-.6v-5.9c0-.7.5-1.4,1-1.8l5.1-2.9c.6-.3,1,0,1,.6v5.9c0,.7-.5,1.4-1,1.8Z"/>
    <path class="st42" d="M500.1,484.7l-5.1,2.9c-.6.3-1,0-1-.6v-5.9c0-.7.5-1.4,1-1.8l5.1-2.9c.6-.3,1,0,1,.6v5.9c0,.7-.5,1.4-1,1.8Z"/>
  </g>
  <path class="st41" d="M435.4,644.3c0-.7-.5-1.4-1-1.8l-57.7-33.2c-.6-.3-1,0-1,.6v5.9c0,.7.5,1.4,1,1.8l57.7,33.2c.6.3,1,0,1-.6v-5.9Z"/>
  <path class="st40" d="M346.7,862c-3.1-1.8-3.1-4.7,0-6.5l120.8-69.7c3.1-1.8,8.1-1.8,11.3,0l120.8,69.7c3.1,1.8,3.1,4.7,0,6.5l-120.8,69.7c-3.1,1.8-8.1,1.8-11.3,0l-120.8-69.7Z"/>
  <path class="st39" d="M325.3,1286.4v-373.4c0-1.3.9-2.6,2.5-3.5l50.5-29.2"/>
  <path class="st34" d="M344,1284.7v-361.6c0-1.3.9-2.6,2.5-3.5l50.3-29"/>
  <path class="st35" d="M362.3,1282.5v-349c0-1.3.9-2.6,2.5-3.5l49.8-28.8"/>
  <path class="st33" d="M380.8,1287.8v-343.8c0-1.3.9-2.6,2.5-3.5l50-28.9"/>
  <path class="st26" d="M527,756.8c-3.1-1.8-3.1-4.7,0-6.5l120.8-69.7c3.1-1.8,8.1-1.8,11.3,0l120.8,69.7c3.1,1.8,3.1,4.7,0,6.5l-120.8,69.7c-3.1,1.8-8.1,1.8-11.3,0l-120.8-69.7Z"/>
  <path class="st26" d="M727.4,722.5l550.4-336.2"/>
  <path class="st26" d="M708.9,712.2l570.7-346.6"/>
  <path class="st26" d="M691.1,701.6l616-374"/>
  <path class="st26" d="M672.4,691.2l581.5-357.3"/>
  <path class="st43" d="M659.5,796.5l120.4-69.5c1.6-.9,2.5-2.2,2.5-3.5v-45.4c0-2.8-3.9-5-8.7-5h-240.9c-4.8,0-8.7,2.2-8.7,5v45.4c0,1.3.9,2.6,2.5,3.5l120.4,69.5c3.4,2,8.9,2,12.3,0Z"/>
  <path class="st9" d="M659.5,796.5l120.4-69.5c1.6-.9,2.5-2.2,2.5-3.5v-45.4c0-2.8-3.9-5-8.7-5h-240.9c-4.8,0-8.7,2.2-8.7,5v45.4c0,1.3.9,2.6,2.5,3.5l120.4,69.5c3.4,2,8.9,2,12.3,0Z"/>
  <path class="st0" d="M659.5,796.5l120.4-69.5c1.6-.9,2.5-2.2,2.5-3.5v-45.4c0-2.8-3.9-5-8.7-5h-240.9c-4.8,0-8.7,2.2-8.7,5v45.4c0,1.3.9,2.6,2.5,3.5l120.4,69.5c3.4,2,8.9,2,12.3,0Z"/>
  <path class="st38" d="M779.4,726.7l-120.4,69.5c-3.1,1.8-8.1,1.8-11.3,0l-120.4-69.5c-1.5-.9-2.3-2-2.3-3.2v-45.4c0-2.5,3.6-4.6,8-4.6h240.9c4.4,0,8,2.1,8,4.6v45.4c0,1.2-.8,2.4-2.3,3.2Z"/>
  <path class="st43" d="M526.5,673.6l120.8-69.7c3.4-2,8.9-2,12.3,0l120.8,69.7c3.4,2,3.4,5.1,0,7.1l-120.8,69.7c-3.4,2-8.9,2-12.3,0l-120.8-69.7c-3.4-2-3.4-5.1,0-7.1Z"/>
  <path class="st5" d="M526.5,673.6l120.8-69.7c3.4-2,8.9-2,12.3,0l120.8,69.7c3.4,2,3.4,5.1,0,7.1l-120.8,69.7c-3.4,2-8.9,2-12.3,0l-120.8-69.7c-3.4-2-3.4-5.1,0-7.1Z"/>
  <path class="st24" d="M564.6,674.2l83.5-48.2c3.1-1.8,8.1-1.8,11.3,0l83.5,48.2c3.1,1.8,3.1,4.7,0,6.5l-83.5,48.2c-3.1,1.8-8.1,1.8-11.3,0l-83.5-48.2c-3.1-1.8-3.1-4.7,0-6.5Z"/>
  <g class="st46">
    <path class="st42" d="M675.3,755.9l5.1-2.9c.6-.3,1,0,1,.6v5.9c0,.7-.5,1.4-1,1.8l-5.1,2.9c-.6.3-1,0-1-.6v-5.9c0-.7.5-1.4,1-1.8Z"/>
    <path class="st42" d="M699.8,754.4l5.1-2.9c.6-.3,1,0,1,.6v5.9c0,.7-.5,1.4-1,1.8l-5.1,2.9c-.6.3-1,0-1-.6v-5.9c0-.7.5-1.4,1-1.8Z"/>
    <path class="st42" d="M711.9,733.4l5.1-2.9c.6-.3,1,0,1,.6v5.9c0,.7-.5,1.4-1,1.8l-5.1,2.9c-.6.3-1,0-1-.6v-5.9c0-.7.5-1.4,1-1.8Z"/>
    <path class="st42" d="M687.4,748.4l5.1-2.9c.6-.3,1,0,1,.6v5.9c0,.7-.5,1.4-1,1.8l-5.1,2.9c-.6.3-1,0-1-.6v-5.9c0-.7.5-1.4,1-1.8Z"/>
    <path class="st42" d="M724,726l5.1-2.9c.6-.3,1,0,1,.6v5.9c0,.7-.5,1.4-1,1.8l-5.1,2.9c-.6.3-1,0-1-.6v-5.9c0-.7.5-1.4,1-1.8Z"/>
    <path class="st42" d="M724,739.6l5.1-2.9c.6-.3,1,0,1,.6v5.9c0,.7-.5,1.4-1,1.8l-5.1,2.9c-.6.3-1,0-1-.6v-5.9c0-.7.5-1.4,1-1.8Z"/>
    <path class="st42" d="M760.6,717.2l5.1-2.9c.6-.3,1,0,1,.6v5.9c0,.7-.5,1.4-1,1.8l-5.1,2.9c-.6.3-1,0-1-.6v-5.9c0-.7.5-1.4,1-1.8Z"/>
  </g>
  <path class="st43" d="M659.5,710.7l120.4-69.5c1.6-.9,2.5-2.2,2.5-3.5v-45.4c0-2.8-3.9-5-8.7-5h-240.9c-4.8,0-8.7,2.2-8.7,5v45.4c0,1.3.9,2.6,2.5,3.5l120.4,69.5c3.4,2,8.9,2,12.3,0Z"/>
  <path class="st11" d="M659.5,710.7l120.4-69.5c1.6-.9,2.5-2.2,2.5-3.5v-45.4c0-2.8-3.9-5-8.7-5h-240.9c-4.8,0-8.7,2.2-8.7,5v45.4c0,1.3.9,2.6,2.5,3.5l120.4,69.5c3.4,2,8.9,2,12.3,0Z"/>
  <path class="st2" d="M659.5,710.7l120.4-69.5c1.6-.9,2.5-2.2,2.5-3.5v-45.4c0-2.8-3.9-5-8.7-5h-240.9c-4.8,0-8.7,2.2-8.7,5v45.4c0,1.3.9,2.6,2.5,3.5l120.4,69.5c3.4,2,8.9,2,12.3,0Z"/>
  <path class="st38" d="M779.4,640.9l-120.4,69.5c-3.1,1.8-8.1,1.8-11.3,0l-120.4-69.5c-1.5-.9-2.3-2-2.3-3.2v-45.4c0-2.5,3.6-4.6,8-4.6h240.9c4.4,0,8,2.1,8,4.6v45.4c0,1.2-.8,2.4-2.3,3.2Z"/>
  <path class="st43" d="M526.5,587.8l120.8-69.7c3.4-2,8.9-2,12.3,0l120.8,69.7c3.4,2,3.4,5.1,0,7.1l-120.8,69.7c-3.4,2-8.9,2-12.3,0l-120.8-69.7c-3.4-2-3.4-5.1,0-7.1Z"/>
  <path class="st18" d="M526.5,587.8l120.8-69.7c3.4-2,8.9-2,12.3,0l120.8,69.7c3.4,2,3.4,5.1,0,7.1l-120.8,69.7c-3.4,2-8.9,2-12.3,0l-120.8-69.7c-3.4-2-3.4-5.1,0-7.1Z"/>
  <path class="st24" d="M564.6,588.4l83.5-48.2c3.1-1.8,8.1-1.8,11.3,0l83.5,48.2c3.1,1.8,3.1,4.7,0,6.5l-83.5,48.2c-3.1,1.8-8.1,1.8-11.3,0l-83.5-48.2c-3.1-1.8-3.1-4.7,0-6.5Z"/>
  <g class="st46">
    <path class="st42" d="M675.3,670l5.1-2.9c.6-.3,1,0,1,.6v5.9c0,.7-.5,1.4-1,1.8l-5.1,2.9c-.6.3-1,0-1-.6v-5.9c0-.7.5-1.4,1-1.8Z"/>
    <path class="st42" d="M699.8,668.6l5.1-2.9c.6-.3,1,0,1,.6v5.9c0,.7-.5,1.4-1,1.8l-5.1,2.9c-.6.3-1,0-1-.6v-5.9c0-.7.5-1.4,1-1.8Z"/>
    <path class="st42" d="M711.9,647.6l5.1-2.9c.6-.3,1,0,1,.6v5.9c0,.7-.5,1.4-1,1.8l-5.1,2.9c-.6.3-1,0-1-.6v-5.9c0-.7.5-1.4,1-1.8Z"/>
    <path class="st42" d="M687.4,662.6l5.1-2.9c.6-.3,1,0,1,.6v5.9c0,.7-.5,1.4-1,1.8l-5.1,2.9c-.6.3-1,0-1-.6v-5.9c0-.7.5-1.4,1-1.8Z"/>
    <path class="st42" d="M724,640.2l5.1-2.9c.6-.3,1,0,1,.6v5.9c0,.7-.5,1.4-1,1.8l-5.1,2.9c-.6.3-1,0-1-.6v-5.9c0-.7.5-1.4,1-1.8Z"/>
    <path class="st42" d="M748.5,638.8l5.1-2.9c.6-.3,1,0,1,.6v5.9c0,.7-.5,1.4-1,1.8l-5.1,2.9c-.6.3-1,0-1-.6v-5.9c0-.7.5-1.4,1-1.8Z"/>
    <path class="st42" d="M699.4,655.2l5.1-2.9c.6-.3,1,0,1,.6v5.9c0,.7-.5,1.4-1,1.8l-5.1,2.9c-.6.3-1,0-1-.6v-5.9c0-.7.5-1.4,1-1.8Z"/>
    <path class="st42" d="M724,653.8l5.1-2.9c.6-.3,1,0,1,.6v5.9c0,.7-.5,1.4-1,1.8l-5.1,2.9c-.6.3-1,0-1-.6v-5.9c0-.7.5-1.4,1-1.8Z"/>
    <path class="st42" d="M736.1,632.8l5.1-2.9c.6-.3,1,0,1,.6v5.9c0,.7-.5,1.4-1,1.8l-5.1,2.9c-.6.3-1,0-1-.6v-5.9c0-.7.5-1.4,1-1.8Z"/>
    <path class="st42" d="M760.6,631.4l5.1-2.9c.6-.3,1,0,1,.6v5.9c0,.7-.5,1.4-1,1.8l-5.1,2.9c-.6.3-1,0-1-.6v-5.9c0-.7.5-1.4,1-1.8Z"/>
  </g>
  <path class="st41" d="M615.7,756.1c0-.7-.5-1.4-1-1.8l-57.7-33.2c-.6-.3-1,0-1,.6v5.9c0,.7.5,1.4,1,1.8l57.7,33.2c.6.3,1,0,1-.6v-5.9Z"/>
  <path class="st43" d="M479.1,901l120.4-69.5c1.6-.9,2.5-2.2,2.5-3.5v-45.4c0-2.8-3.9-5-8.7-5h-240.9c-4.8,0-8.7,2.2-8.7,5v45.4c0,1.3.9,2.6,2.5,3.5l120.4,69.5c3.4,2,8.9,2,12.3,0Z"/>
  <path class="st10" d="M479.1,901l120.4-69.5c1.6-.9,2.5-2.2,2.5-3.5v-45.4c0-2.8-3.9-5-8.7-5h-240.9c-4.8,0-8.7,2.2-8.7,5v45.4c0,1.3.9,2.6,2.5,3.5l120.4,69.5c3.4,2,8.9,2,12.3,0Z"/>
  <path class="st1" d="M479.1,901l120.4-69.5c1.6-.9,2.5-2.2,2.5-3.5v-45.4c0-2.8-3.9-5-8.7-5h-240.9c-4.8,0-8.7,2.2-8.7,5v45.4c0,1.3.9,2.6,2.5,3.5l120.4,69.5c3.4,2,8.9,2,12.3,0Z"/>
  <path class="st38" d="M599.1,831.2l-120.4,69.5c-3.1,1.8-8.1,1.8-11.3,0l-120.4-69.5c-1.5-.9-2.3-2-2.3-3.2v-45.4c0-2.5,3.6-4.6,8-4.6h240.9c4.4,0,8,2.1,8,4.6v45.4c0,1.2-.8,2.4-2.3,3.2Z"/>
  <path class="st43" d="M346.2,778.1l120.8-69.7c3.4-2,8.9-2,12.3,0l120.8,69.7c3.4,2,3.4,5.1,0,7.1l-120.8,69.7c-3.4,2-8.9,2-12.3,0l-120.8-69.7c-3.4-2-3.4-5.1,0-7.1Z"/>
  <path class="st19" d="M346.2,778.1l120.8-69.7c3.4-2,8.9-2,12.3,0l120.8,69.7c3.4,2,3.4,5.1,0,7.1l-120.8,69.7c-3.4,2-8.9,2-12.3,0l-120.8-69.7c-3.4-2-3.4-5.1,0-7.1Z"/>
  <path class="st24" d="M384.3,778.7l83.5-48.2c3.1-1.8,8.1-1.8,11.3,0l83.5,48.2c3.1,1.8,3.1,4.7,0,6.5l-83.5,48.2c-3.1,1.8-8.1,1.8-11.3,0l-83.5-48.2c-3.1-1.8-3.1-4.7,0-6.5Z"/>
  <g class="st46">
    <path class="st42" d="M495,860.3l5.1-2.9c.6-.3,1,0,1,.6v5.9c0,.7-.5,1.4-1,1.8l-5.1,2.9c-.6.3-1,0-1-.6v-5.9c0-.7.5-1.4,1-1.8Z"/>
    <path class="st42" d="M519.5,858.9l5.1-2.9c.6-.3,1,0,1,.6v5.9c0,.7-.5,1.4-1,1.8l-5.1,2.9c-.6.3-1,0-1-.6v-5.9c0-.7.5-1.4,1-1.8Z"/>
    <path class="st42" d="M531.6,837.9l5.1-2.9c.6-.3,1,0,1,.6v5.9c0,.7-.5,1.4-1,1.8l-5.1,2.9c-.6.3-1,0-1-.6v-5.9c0-.7.5-1.4,1-1.8Z"/>
    <path class="st42" d="M507.1,852.9l5.1-2.9c.6-.3,1,0,1,.6v5.9c0,.7-.5,1.4-1,1.8l-5.1,2.9c-.6.3-1,0-1-.6v-5.9c0-.7.5-1.4,1-1.8Z"/>
    <path class="st42" d="M543.7,830.5l5.1-2.9c.6-.3,1,0,1,.6v5.9c0,.7-.5,1.4-1,1.8l-5.1,2.9c-.6.3-1,0-1-.6v-5.9c0-.7.5-1.4,1-1.8Z"/>
    <path class="st42" d="M543.7,844.1l5.1-2.9c.6-.3,1,0,1,.6v5.9c0,.7-.5,1.4-1,1.8l-5.1,2.9c-.6.3-1,0-1-.6v-5.9c0-.7.5-1.4,1-1.8Z"/>
    <path class="st42" d="M580.3,821.7l5.1-2.9c.6-.3,1,0,1,.6v5.9c0,.7-.5,1.4-1,1.8l-5.1,2.9c-.6.3-1,0-1-.6v-5.9c0-.7.5-1.4,1-1.8Z"/>
  </g>
  <path class="st43" d="M479.1,815.2l120.4-69.5c1.6-.9,2.5-2.2,2.5-3.5v-45.4c0-2.8-3.9-5-8.7-5h-240.9c-4.8,0-8.7,2.2-8.7,5v45.4c0,1.3.9,2.6,2.5,3.5l120.4,69.5c3.4,2,8.9,2,12.3,0Z"/>
  <path class="st13" d="M479.1,815.2l120.4-69.5c1.6-.9,2.5-2.2,2.5-3.5v-45.4c0-2.8-3.9-5-8.7-5h-240.9c-4.8,0-8.7,2.2-8.7,5v45.4c0,1.3.9,2.6,2.5,3.5l120.4,69.5c3.4,2,8.9,2,12.3,0Z"/>
  <path class="st3" d="M479.1,815.2l120.4-69.5c1.6-.9,2.5-2.2,2.5-3.5v-45.4c0-2.8-3.9-5-8.7-5h-240.9c-4.8,0-8.7,2.2-8.7,5v45.4c0,1.3.9,2.6,2.5,3.5l120.4,69.5c3.4,2,8.9,2,12.3,0Z"/>
  <path class="st38" d="M599.1,745.4l-120.4,69.5c-3.1,1.8-8.1,1.8-11.3,0l-120.4-69.5c-1.5-.9-2.3-2-2.3-3.2v-45.4c0-2.5,3.6-4.6,8-4.6h240.9c4.4,0,8,2.1,8,4.6v45.4c0,1.2-.8,2.4-2.3,3.2Z"/>
  <path class="st43" d="M346.2,692.3l120.8-69.7c3.4-2,8.9-2,12.3,0l120.8,69.7c3.4,2,3.4,5.1,0,7.1l-120.8,69.7c-3.4,2-8.9,2-12.3,0l-120.8-69.7c-3.4-2-3.4-5.1,0-7.1Z"/>
  <path class="st20" d="M346.2,692.3l120.8-69.7c3.4-2,8.9-2,12.3,0l120.8,69.7c3.4,2,3.4,5.1,0,7.1l-120.8,69.7c-3.4,2-8.9,2-12.3,0l-120.8-69.7c-3.4-2-3.4-5.1,0-7.1Z"/>
  <path class="st24" d="M384.3,692.9l83.5-48.2c3.1-1.8,8.1-1.8,11.3,0l83.5,48.2c3.1,1.8,3.1,4.7,0,6.5l-83.5,48.2c-3.1,1.8-8.1,1.8-11.3,0l-83.5-48.2c-3.1-1.8-3.1-4.7,0-6.5Z"/>
  <g class="st46">
    <path class="st42" d="M495,774.5l5.1-2.9c.6-.3,1,0,1,.6v5.9c0,.7-.5,1.4-1,1.8l-5.1,2.9c-.6.3-1,0-1-.6v-5.9c0-.7.5-1.4,1-1.8Z"/>
    <path class="st42" d="M519.5,773.1l5.1-2.9c.6-.3,1,0,1,.6v5.9c0,.7-.5,1.4-1,1.8l-5.1,2.9c-.6.3-1,0-1-.6v-5.9c0-.7.5-1.4,1-1.8Z"/>
    <path class="st42" d="M531.6,752.1l5.1-2.9c.6-.3,1,0,1,.6v5.9c0,.7-.5,1.4-1,1.8l-5.1,2.9c-.6.3-1,0-1-.6v-5.9c0-.7.5-1.4,1-1.8Z"/>
    <path class="st42" d="M507.1,767.1l5.1-2.9c.6-.3,1,0,1,.6v5.9c0,.7-.5,1.4-1,1.8l-5.1,2.9c-.6.3-1,0-1-.6v-5.9c0-.7.5-1.4,1-1.8Z"/>
    <path class="st42" d="M543.7,744.7l5.1-2.9c.6-.3,1,0,1,.6v5.9c0,.7-.5,1.4-1,1.8l-5.1,2.9c-.6.3-1,0-1-.6v-5.9c0-.7.5-1.4,1-1.8Z"/>
    <path class="st42" d="M568.2,743.3l5.1-2.9c.6-.3,1,0,1,.6v5.9c0,.7-.5,1.4-1,1.8l-5.1,2.9c-.6.3-1,0-1-.6v-5.9c0-.7.5-1.4,1-1.8Z"/>
    <path class="st42" d="M519.1,759.7l5.1-2.9c.6-.3,1,0,1,.6v5.9c0,.7-.5,1.4-1,1.8l-5.1,2.9c-.6.3-1,0-1-.6v-5.9c0-.7.5-1.4,1-1.8Z"/>
    <path class="st42" d="M543.7,758.3l5.1-2.9c.6-.3,1,0,1,.6v5.9c0,.7-.5,1.4-1,1.8l-5.1,2.9c-.6.3-1,0-1-.6v-5.9c0-.7.5-1.4,1-1.8Z"/>
    <path class="st42" d="M555.8,737.3l5.1-2.9c.6-.3,1,0,1,.6v5.9c0,.7-.5,1.4-1,1.8l-5.1,2.9c-.6.3-1,0-1-.6v-5.9c0-.7.5-1.4,1-1.8Z"/>
    <path class="st42" d="M580.3,735.8l5.1-2.9c.6-.3,1,0,1,.6v5.9c0,.7-.5,1.4-1,1.8l-5.1,2.9c-.6.3-1,0-1-.6v-5.9c0-.7.5-1.4,1-1.8Z"/>
  </g>
  <path class="st43" d="M479.1,736.3l120.4-69.5c1.6-.9,2.5-2.2,2.5-3.5v-45.4c0-2.8-3.9-5-8.7-5h-240.9c-4.8,0-8.7,2.2-8.7,5v45.4c0,1.3.9,2.6,2.5,3.5l120.4,69.5c3.4,2,8.9,2,12.3,0Z"/>
  <path class="st14" d="M479.1,736.3l120.4-69.5c1.6-.9,2.5-2.2,2.5-3.5v-45.4c0-2.8-3.9-5-8.7-5h-240.9c-4.8,0-8.7,2.2-8.7,5v45.4c0,1.3.9,2.6,2.5,3.5l120.4,69.5c3.4,2,8.9,2,12.3,0Z"/>
  <path class="st12" d="M479.1,736.3l120.4-69.5c1.6-.9,2.5-2.2,2.5-3.5v-45.4c0-2.8-3.9-5-8.7-5h-240.9c-4.8,0-8.7,2.2-8.7,5v45.4c0,1.3.9,2.6,2.5,3.5l120.4,69.5c3.4,2,8.9,2,12.3,0Z"/>
  <path class="st38" d="M599.1,666.5l-120.4,69.5c-3.1,1.8-8.1,1.8-11.3,0l-120.4-69.5c-1.5-.9-2.3-2-2.3-3.2v-45.4c0-2.5,3.6-4.6,8-4.6h240.9c4.4,0,8,2.1,8,4.6v45.4c0,1.2-.8,2.4-2.3,3.2Z"/>
  <path class="st44" d="M346.2,613.4l120.8-69.7c3.4-2,8.9-2,12.3,0l120.8,69.7c3.4,2,3.4,5.1,0,7.1l-120.8,69.7c-3.4,2-8.9,2-12.3,0l-120.8-69.7c-3.4-2-3.4-5.1,0-7.1Z"/>
  <path class="st47" d="M346.2,613.4l120.8-69.7c3.4-2,8.9-2,12.3,0l120.8,69.7c3.4,2,3.4,5.1,0,7.1l-120.8,69.7c-3.4,2-8.9,2-12.3,0l-120.8-69.7c-3.4-2-3.4-5.1,0-7.1Z"/>
  <path class="st36" d="M378.6,614l89.2-51.5c3.1-1.8,8.1-1.8,11.3,0l89.2,51.5c3.1,1.8,3.1,4.7,0,6.5l-89.2,51.5c-3.1,1.8-8.1,1.8-11.3,0l-89.2-51.5c-3.1-1.8-3.1-4.7,0-6.5Z"/>
  <g class="st46">
    <path class="st42" d="M585.4,662.2l-5.1,2.9c-.6.3-1,0-1-.6v-5.9c0-.7.5-1.4,1-1.8l5.1-2.9c.6-.3,1,0,1,.6v5.9c0,.7-.5,1.4-1,1.8Z"/>
    <path class="st42" d="M560.9,663.6l-5.1,2.9c-.6.3-1,0-1-.6v-5.9c0-.7.5-1.4,1-1.8l5.1-2.9c.6-.3,1,0,1,.6v5.9c0,.7-.5,1.4-1,1.8Z"/>
    <path class="st42" d="M573.3,669.6l-5.1,2.9c-.6.3-1,0-1-.6v-5.9c0-.7.5-1.4,1-1.8l5.1-2.9c.6-.3,1,0,1,.6v5.9c0,.7-.5,1.4-1,1.8Z"/>
    <path class="st42" d="M512.1,693.5l-5.1,2.9c-.6.3-1,0-1-.6v-5.9c0-.7.5-1.4,1-1.8l5.1-2.9c.6-.3,1,0,1,.6v5.9c0,.7-.5,1.4-1,1.8Z"/>
    <path class="st42" d="M561.2,677.1l-5.1,2.9c-.6.3-1,0-1-.6v-5.9c0-.7.5-1.4,1-1.8l5.1-2.9c.6-.3,1,0,1,.6v5.9c0,.7-.5,1.4-1,1.8Z"/>
    <path class="st42" d="M536.7,678.5l-5.1,2.9c-.6.3-1,0-1-.6v-5.9c0-.7.5-1.4,1-1.8l5.1-2.9c.6-.3,1,0,1,.6v5.9c0,.7-.5,1.4-1,1.8Z"/>
    <path class="st42" d="M500.1,700.9l-5.1,2.9c-.6.3-1,0-1-.6v-5.9c0-.7.5-1.4,1-1.8l5.1-2.9c.6-.3,1,0,1,.6v5.9c0,.7-.5,1.4-1,1.8Z"/>
  </g>
  <path d="M435.4,861.8c0-1.3-.9-2.9-2.1-3.5l-55.6-32c-1.1-.6-2-.1-2,1.2v3.5c0,1.3.9,2.9,2.1,3.5l55.6,32c1.1.6,2,.1,2-1.2v-3.5Z"/>
  <path class="st48" d="M435.4,861.8c0-1.3-.9-2.9-2.1-3.5l-55.6-32c-1.1-.6-2-.1-2,1.2v3.5c0,1.3.9,2.9,2.1,3.5l55.6,32c1.1.6,2,.1,2-1.2v-3.5Z"/>
  <path class="st31" d="M475.3,600.6l-20.7,11.9c-.8.5-.8,1.2,0,1.7l16.8,9.7c.8.5,2.1.5,2.9,0l20.7-11.9"/>
  <path class="st31" d="M470.3,614.9l14.9-8.6"/>
  <path class="st29" d="M441.3,608.8l24.1-13.9c4.4-2.5,11.6-2.5,16,0l24.1,13.9c4.4,2.5,4.4,6.7,0,9.2l-24.1,13.9c-4.4,2.5-11.6,2.5-16,0l-24.1-13.9c-4.4-2.5-4.4-6.7,0-9.2Z"/>
  <ellipse class="st8" cx="323.8" cy="345.7" rx="13" ry="13.6"/>
  <circle class="st7" cx="718" cy="463.9" r="16"/>
  <circle class="st6" cx="245.2" cy="559.6" r="16"/>
  <path class="st37" d="M310.8,576.7v26.7"/>
  <path class="st37" d="M310.8,540.1v26.7"/>
  <path class="st37" d="M310.8,645.3v28.3"/>
  <path class="st28" d="M310.8,611v26.7"/>
  <path class="st27" d="M639.4,352.2v26.7"/>
  <path class="st27" d="M639.4,315.5v26.7"/>
  <path class="st27" d="M639.4,388.8v28.3"/>
  <path class="st32" d="M639.4,427.2v26.7"/>
  <path class="st26" d="M676.6,816l66.2,40.2,10.6,45.5,67.4,40.8"/>
  <path class="st26" d="M696.7,804.8l63.8,37.8,31.9,39,65,38.4"/>
  <path class="st26" d="M715.6,793.6l180.2,104"/>
  <path class="st26" d="M736.3,781.8l66.2,39,62,16.5,68,38.4"/>
  <path class="st26" d="M756.4,770.5l63.8,37.8,81,6.5,70.9,39.6"/>
</svg>