<svg width="1300" height="1300" viewBox="0 0 1100 900" fill="none" xmlns="http://www.w3.org/2000/svg">
<g clip-path="">
<g filter="url(#filter0_d_123_3569)">
<rect width="1279.48" height="1279.48" rx="36.6976" transform="matrix(0.866025 -0.5 0.866025 0.5 26 526.558)" fill="#171717"/>
</g>
<rect x="0.866025" width="129" height="129" rx="5.5" transform="matrix(0.866025 -0.5 0.866025 0.5 287.85 455.091)" stroke="#E0E0E0"/>
<path d="M405.431 479.425L507.34 420.588C508.718 419.792 509.492 418.713 509.492 417.588V379.206C509.492 376.863 506.202 374.964 502.144 374.964L298.327 374.964C294.268 374.964 290.978 376.863 290.978 379.206L290.978 417.588C290.978 418.713 291.752 419.792 293.131 420.588L395.039 479.425C397.909 481.081 402.562 481.081 405.431 479.425Z" fill="#282828"/>
<path d="M405.431 479.425L507.34 420.588C508.718 419.792 509.492 418.713 509.492 417.588V379.206C509.492 376.863 506.202 374.964 502.144 374.964L298.327 374.964C294.268 374.964 290.978 376.863 290.978 379.206L290.978 417.588C290.978 418.713 291.752 419.792 293.131 420.588L395.039 479.425C397.909 481.081 402.562 481.081 405.431 479.425Z" fill="url(#paint0_linear_123_3569)" fill-opacity="0.4"/>
<path d="M506.907 420.338L404.998 479.175C402.368 480.693 398.103 480.693 395.472 479.175L293.564 420.338C292.3 419.608 291.591 418.619 291.591 417.588L291.591 379.206C291.591 377.058 294.606 375.317 298.327 375.317L502.144 375.317C505.864 375.317 508.88 377.058 508.88 379.206L508.88 417.588C508.88 418.619 508.17 419.608 506.907 420.338Z" stroke="#282828" stroke-opacity="0.6"/>
<rect width="130" height="130" rx="6" transform="matrix(0.866025 -0.5 0.866025 0.5 287.734 378.424)" fill="#282828"/>
<rect width="130" height="130" rx="6" transform="matrix(0.866025 -0.5 0.866025 0.5 287.734 378.424)" fill="url(#paint1_linear_123_3569)" fill-opacity="0.4"/>
<rect opacity="0.4" x="0.866025" width="92.554" height="92.554" rx="5.5" transform="matrix(0.866025 -0.5 0.866025 0.5 319.659 379.094)" stroke="#444444"/>
<g opacity="0.1">
<rect width="6.9697" height="6.9697" rx="1" transform="matrix(0.866025 -0.5 2.20305e-08 1 417.963 445.491)" fill="white"/>
<rect width="6.9697" height="6.9697" rx="1" transform="matrix(0.866025 -0.5 2.20305e-08 1 438.729 444.296)" fill="white"/>
<rect width="6.9697" height="6.9697" rx="1" transform="matrix(0.866025 -0.5 2.20305e-08 1 448.963 426.491)" fill="white"/>
<rect width="6.9697" height="6.9697" rx="1" transform="matrix(0.866025 -0.5 2.20305e-08 1 428.18 439.219)" fill="white"/>
<rect width="6.9697" height="6.9697" rx="1" transform="matrix(0.866025 -0.5 2.20305e-08 1 459.18 420.219)" fill="white"/>
<rect width="6.9697" height="6.9697" rx="1" transform="matrix(0.866025 -0.5 2.20305e-08 1 459.164 431.75)" fill="white"/>
<rect width="6.9697" height="6.9697" rx="1" transform="matrix(0.866025 -0.5 2.20305e-08 1 490.164 412.75)" fill="white"/>
</g>
<path d="M405.431 406.818L507.34 347.981C508.718 347.186 509.492 346.106 509.492 344.981V306.6C509.492 304.257 506.202 302.357 502.144 302.357L298.327 302.357C294.268 302.357 290.978 304.257 290.978 306.6L290.978 344.981C290.978 346.106 291.752 347.186 293.131 347.981L395.039 406.818C397.909 408.475 402.562 408.475 405.431 406.818Z" fill="#282828"/>
<path d="M405.431 406.818L507.34 347.981C508.718 347.186 509.492 346.106 509.492 344.981V306.6C509.492 304.257 506.202 302.357 502.144 302.357L298.327 302.357C294.268 302.357 290.978 304.257 290.978 306.6L290.978 344.981C290.978 346.106 291.752 347.186 293.131 347.981L395.039 406.818C397.909 408.475 402.562 408.475 405.431 406.818Z" fill="url(#paint2_linear_123_3569)" fill-opacity="0.4"/>
<path d="M506.907 347.731L404.998 406.568C402.368 408.087 398.103 408.087 395.472 406.568L293.564 347.731C292.3 347.002 291.591 346.013 291.591 344.981L291.591 306.6C291.591 304.452 294.606 302.711 298.327 302.711L502.144 302.711C505.864 302.711 508.88 304.452 508.88 306.6L508.88 344.981C508.88 346.013 508.17 347.002 506.907 347.731Z" stroke="white" stroke-opacity="0.02"/>
<rect width="130" height="130" rx="6" transform="matrix(0.866025 -0.5 0.866025 0.5 287.734 305.817)" fill="#282828"/>
<rect width="130" height="130" rx="6" transform="matrix(0.866025 -0.5 0.866025 0.5 287.734 305.817)" fill="url(#paint3_linear_123_3569)" fill-opacity="0.4"/>
<rect opacity="0.4" x="0.866025" width="92.554" height="92.554" rx="5.5" transform="matrix(0.866025 -0.5 0.866025 0.5 319.659 306.488)" stroke="#444444"/>
<g opacity="0.04">
<rect width="6.9697" height="6.9697" rx="1" transform="matrix(0.866025 -0.5 2.20305e-08 1 417.963 372.885)" fill="white"/>
<rect width="6.9697" height="6.9697" rx="1" transform="matrix(0.866025 -0.5 2.20305e-08 1 438.729 371.689)" fill="white"/>
<rect width="6.9697" height="6.9697" rx="1" transform="matrix(0.866025 -0.5 2.20305e-08 1 448.963 353.885)" fill="white"/>
<rect width="6.9697" height="6.9697" rx="1" transform="matrix(0.866025 -0.5 2.20305e-08 1 428.18 366.612)" fill="white"/>
<rect width="6.9697" height="6.9697" rx="1" transform="matrix(0.866025 -0.5 2.20305e-08 1 459.18 347.612)" fill="white"/>
<rect width="6.9697" height="6.9697" rx="1" transform="matrix(0.866025 -0.5 2.20305e-08 1 479.947 346.417)" fill="white"/>
<rect width="6.9697" height="6.9697" rx="1" transform="matrix(0.866025 -0.5 2.20305e-08 1 438.398 360.34)" fill="white"/>
<rect width="6.9697" height="6.9697" rx="1" transform="matrix(0.866025 -0.5 2.20305e-08 1 459.164 359.144)" fill="white"/>
<rect width="6.9697" height="6.9697" rx="1" transform="matrix(0.866025 -0.5 2.20305e-08 1 469.398 341.34)" fill="white"/>
<rect width="6.9697" height="6.9697" rx="1" transform="matrix(0.866025 -0.5 2.20305e-08 1 490.164 340.144)" fill="white"/>
</g>
<path d="M405.431 340.041L507.34 281.204C508.718 280.408 509.492 279.329 509.492 278.204V239.823C509.492 237.479 506.202 235.58 502.144 235.58L298.327 235.58C294.268 235.58 290.978 237.479 290.978 239.823L290.978 278.204C290.978 279.329 291.752 280.408 293.131 281.204L395.039 340.041C397.909 341.698 402.562 341.698 405.431 340.041Z" fill="#282828"/>
<path d="M405.431 340.041L507.34 281.204C508.718 280.408 509.492 279.329 509.492 278.204V239.823C509.492 237.479 506.202 235.58 502.144 235.58L298.327 235.58C294.268 235.58 290.978 237.479 290.978 239.823L290.978 278.204C290.978 279.329 291.752 280.408 293.131 281.204L395.039 340.041C397.909 341.698 402.562 341.698 405.431 340.041Z" fill="url(#paint4_linear_123_3569)" fill-opacity="0.4"/>
<path d="M506.907 280.954L404.998 339.791C402.368 341.31 398.103 341.31 395.472 339.791L293.564 280.954C292.3 280.224 291.591 279.235 291.591 278.204L291.591 239.823C291.591 237.675 294.606 235.933 298.327 235.933L502.144 235.933C505.864 235.933 508.88 237.675 508.88 239.823L508.88 278.204C508.88 279.235 508.17 280.224 506.907 280.954Z" stroke="white" stroke-opacity="0.02"/>
<rect width="130" height="130" rx="6" transform="matrix(0.866025 -0.5 0.866025 0.5 287.734 239.04)" fill="#282828"/>
<rect width="130" height="130" rx="6" transform="matrix(0.866025 -0.5 0.866025 0.5 287.734 239.04)" fill="url(#paint5_linear_123_3569)" fill-opacity="0.4"/>
<g opacity="0.04">
<rect width="6.9697" height="6.9697" rx="1" transform="matrix(-0.866025 0.5 -2.20305e-08 -1 496.201 276.854)" fill="white"/>
<rect width="6.9697" height="6.9697" rx="1" transform="matrix(-0.866025 0.5 -2.20305e-08 -1 475.436 278.049)" fill="white"/>
<rect width="6.9697" height="6.9697" rx="1" transform="matrix(-0.866025 0.5 -2.20305e-08 -1 485.984 283.126)" fill="white"/>
<rect width="6.9697" height="6.9697" rx="1" transform="matrix(-0.866025 0.5 -2.20305e-08 -1 434.217 303.322)" fill="white"/>
<rect width="6.9697" height="6.9697" rx="1" transform="matrix(-0.866025 0.5 -2.20305e-08 -1 475.766 289.399)" fill="white"/>
<rect width="6.9697" height="6.9697" rx="1" transform="matrix(-0.866025 0.5 -2.20305e-08 -1 455 290.595)" fill="white"/>
<rect width="6.9697" height="6.9697" rx="1" transform="matrix(-0.866025 0.5 -2.20305e-08 -1 424 309.595)" fill="white"/>
</g>
<path opacity="0.1" d="M368.426 445.178C368.426 444.625 368.037 443.952 367.558 443.677L318.742 415.611C318.265 415.336 317.878 415.56 317.878 416.112L317.878 421.081C317.878 421.635 318.267 422.307 318.746 422.583L367.562 450.649C368.039 450.923 368.426 450.699 368.426 450.148L368.426 445.178Z" fill="white"/>
<path d="M293.365 629.408C290.735 627.889 290.735 625.427 293.365 623.908L395.556 564.908C398.187 563.389 402.452 563.389 405.083 564.908L507.274 623.908C509.904 625.427 509.904 627.889 507.274 629.408L405.083 688.408C402.452 689.927 398.187 689.927 395.556 688.408L293.365 629.408Z" stroke="url(#paint6_linear_123_3569)"/>
<path d="M275.235 988.49L275.235 672.539C275.235 671.414 276.009 670.335 277.388 669.539L320.142 644.854" stroke="url(#paint7_linear_123_3569)"/>
<path d="M291.088 987.077L291.088 681.106C291.088 679.981 291.862 678.902 293.24 678.106L335.796 653.537" stroke="url(#paint8_linear_123_3569)"/>
<path d="M306.571 985.174L306.571 689.83C306.571 688.705 307.345 687.625 308.723 686.83L350.9 662.479" stroke="url(#paint9_linear_123_3569)"/>
<path d="M322.181 989.673L322.181 698.773C322.181 697.648 322.956 696.569 324.334 695.773L366.683 671.323" stroke="url(#paint10_linear_123_3569)"/>
<path d="M445.938 540.331C443.307 538.812 443.307 536.35 445.938 534.831L548.129 475.831C550.759 474.312 555.024 474.312 557.655 475.831L659.846 534.831C662.477 536.35 662.477 538.812 659.846 540.331L557.655 599.331C555.024 600.85 550.759 600.85 548.129 599.331L445.938 540.331Z" stroke="#2D2D2D"/>
<path d="M615.497 511.311L1081.18 226.807" stroke="#2D2D2D"/>
<path d="M599.843 502.629L1082.73 209.376" stroke="#2D2D2D"/>
<path d="M584.74 493.687L1105.96 177.265" stroke="#2D2D2D"/>
<path d="M568.956 484.842L1060.96 182.514" stroke="#2D2D2D"/>
<path d="M558.004 574L659.912 515.163C661.29 514.367 662.065 513.288 662.065 512.163V473.782C662.065 471.438 658.775 469.539 654.716 469.539L450.899 469.539C446.841 469.539 443.551 471.438 443.551 473.782L443.551 512.163C443.551 513.288 444.325 514.367 445.703 515.163L547.611 574C550.481 575.657 555.134 575.657 558.004 574Z" fill="#282828"/>
<path d="M558.004 574L659.912 515.163C661.29 514.367 662.065 513.288 662.065 512.163V473.782C662.065 471.438 658.775 469.539 654.716 469.539L450.899 469.539C446.841 469.539 443.551 471.438 443.551 473.782L443.551 512.163C443.551 513.288 444.325 514.367 445.703 515.163L547.611 574C550.481 575.657 555.134 575.657 558.004 574Z" fill="url(#paint11_linear_123_3569)" fill-opacity="0.1"/>
<path d="M558.004 574L659.912 515.163C661.29 514.367 662.065 513.288 662.065 512.163V473.782C662.065 471.438 658.775 469.539 654.716 469.539L450.899 469.539C446.841 469.539 443.551 471.438 443.551 473.782L443.551 512.163C443.551 513.288 444.325 514.367 445.703 515.163L547.611 574C550.481 575.657 555.134 575.657 558.004 574Z" fill="url(#paint12_linear_123_3569)" fill-opacity="0.4"/>
<path d="M659.479 514.913L557.571 573.75C554.94 575.269 550.675 575.269 548.044 573.75L446.136 514.913C444.873 514.183 444.163 513.194 444.163 512.163L444.163 473.782C444.163 471.634 447.179 469.892 450.899 469.892L654.716 469.892C658.436 469.892 661.452 471.634 661.452 473.782L661.452 512.163C661.452 513.194 660.743 514.183 659.479 514.913Z" stroke="#282828" stroke-opacity="0.6"/>
<rect width="130" height="130" rx="6" transform="matrix(0.866025 -0.5 0.866025 0.5 440.309 472.999)" fill="#282828"/>
<rect width="130" height="130" rx="6" transform="matrix(0.866025 -0.5 0.866025 0.5 440.309 472.999)" fill="url(#paint13_linear_123_3569)" fill-opacity="0.4"/>
<rect opacity="0.4" x="0.866025" width="92.554" height="92.554" rx="5.5" transform="matrix(0.866025 -0.5 0.866025 0.5 472.231 473.669)" stroke="#444444"/>
<g opacity="0.04">
<rect width="6.9697" height="6.9697" rx="1" transform="matrix(0.866025 -0.5 2.20305e-08 1 570.535 540.066)" fill="white"/>
<rect width="6.9697" height="6.9697" rx="1" transform="matrix(0.866025 -0.5 2.20305e-08 1 591.301 538.871)" fill="white"/>
<rect width="6.9697" height="6.9697" rx="1" transform="matrix(0.866025 -0.5 2.20305e-08 1 601.535 521.066)" fill="white"/>
<rect width="6.9697" height="6.9697" rx="1" transform="matrix(0.866025 -0.5 2.20305e-08 1 580.754 533.794)" fill="white"/>
<rect width="6.9697" height="6.9697" rx="1" transform="matrix(0.866025 -0.5 2.20305e-08 1 611.754 514.794)" fill="white"/>
<rect width="6.9697" height="6.9697" rx="1" transform="matrix(0.866025 -0.5 2.20305e-08 1 611.736 526.325)" fill="white"/>
<rect width="6.9697" height="6.9697" rx="1" transform="matrix(0.866025 -0.5 2.20305e-08 1 642.736 507.325)" fill="white"/>
</g>
<path d="M558.004 501.393L659.912 442.556C661.29 441.761 662.065 440.682 662.065 439.556V401.175C662.065 398.832 658.775 396.932 654.716 396.932L450.899 396.932C446.841 396.932 443.551 398.832 443.551 401.175L443.551 439.556C443.551 440.682 444.325 441.761 445.703 442.556L547.611 501.393C550.481 503.05 555.134 503.05 558.004 501.393Z" fill="#282828"/>
<path d="M558.004 501.393L659.912 442.556C661.29 441.761 662.065 440.682 662.065 439.556V401.175C662.065 398.832 658.775 396.932 654.716 396.932L450.899 396.932C446.841 396.932 443.551 398.832 443.551 401.175L443.551 439.556C443.551 440.682 444.325 441.761 445.703 442.556L547.611 501.393C550.481 503.05 555.134 503.05 558.004 501.393Z" fill="url(#paint14_linear_123_3569)" fill-opacity="0.14"/>
<path d="M558.004 501.393L659.912 442.556C661.29 441.761 662.065 440.682 662.065 439.556V401.175C662.065 398.832 658.775 396.932 654.716 396.932L450.899 396.932C446.841 396.932 443.551 398.832 443.551 401.175L443.551 439.556C443.551 440.682 444.325 441.761 445.703 442.556L547.611 501.393C550.481 503.05 555.134 503.05 558.004 501.393Z" fill="url(#paint15_linear_123_3569)" fill-opacity="0.4"/>
<path d="M659.479 442.306L557.571 501.143C554.94 502.662 550.675 502.662 548.044 501.143L446.136 442.306C444.873 441.577 444.163 440.588 444.163 439.556L444.163 401.175C444.163 399.027 447.179 397.286 450.899 397.286L654.716 397.286C658.436 397.286 661.452 399.027 661.452 401.175L661.452 439.556C661.452 440.588 660.743 441.577 659.479 442.306Z" stroke="#282828" stroke-opacity="0.6"/>
<rect width="130" height="130" rx="6" transform="matrix(0.866025 -0.5 0.866025 0.5 440.309 400.393)" fill="#282828"/>
<rect width="130" height="130" rx="6" transform="matrix(0.866025 -0.5 0.866025 0.5 440.309 400.393)" fill="url(#paint16_linear_123_3569)" fill-opacity="0.4"/>
<rect opacity="0.4" x="0.866025" width="92.554" height="92.554" rx="5.5" transform="matrix(0.866025 -0.5 0.866025 0.5 472.231 401.063)" stroke="#444444"/>
<g opacity="0.04">
<rect width="6.9697" height="6.9697" rx="1" transform="matrix(0.866025 -0.5 2.20305e-08 1 570.535 467.46)" fill="white"/>
<rect width="6.9697" height="6.9697" rx="1" transform="matrix(0.866025 -0.5 2.20305e-08 1 591.301 466.265)" fill="white"/>
<rect width="6.9697" height="6.9697" rx="1" transform="matrix(0.866025 -0.5 2.20305e-08 1 601.535 448.46)" fill="white"/>
<rect width="6.9697" height="6.9697" rx="1" transform="matrix(0.866025 -0.5 2.20305e-08 1 580.754 461.188)" fill="white"/>
<rect width="6.9697" height="6.9697" rx="1" transform="matrix(0.866025 -0.5 2.20305e-08 1 611.754 442.188)" fill="white"/>
<rect width="6.9697" height="6.9697" rx="1" transform="matrix(0.866025 -0.5 2.20305e-08 1 632.52 440.992)" fill="white"/>
<rect width="6.9697" height="6.9697" rx="1" transform="matrix(0.866025 -0.5 2.20305e-08 1 590.971 454.915)" fill="white"/>
<rect width="6.9697" height="6.9697" rx="1" transform="matrix(0.866025 -0.5 2.20305e-08 1 611.736 453.719)" fill="white"/>
<rect width="6.9697" height="6.9697" rx="1" transform="matrix(0.866025 -0.5 2.20305e-08 1 621.971 435.915)" fill="white"/>
<rect width="6.9697" height="6.9697" rx="1" transform="matrix(0.866025 -0.5 2.20305e-08 1 642.736 434.719)" fill="white"/>
</g>
<path opacity="0.1" d="M520.998 539.754C520.998 539.201 520.609 538.528 520.13 538.253L471.315 510.187C470.837 509.912 470.45 510.136 470.45 510.688L470.45 515.658C470.45 516.211 470.839 516.883 471.318 517.159L520.134 545.225C520.611 545.499 520.998 545.275 520.998 544.724L520.998 539.754Z" fill="white"/>
<path d="M405.431 662.422L507.34 603.585C508.718 602.789 509.492 601.71 509.492 600.585V562.203C509.492 559.86 506.202 557.961 502.144 557.961L298.327 557.961C294.268 557.961 290.978 559.86 290.978 562.203L290.978 600.585C290.978 601.71 291.752 602.789 293.131 603.585L395.039 662.422C397.909 664.078 402.562 664.078 405.431 662.422Z" fill="#282828"/>
<path d="M405.431 662.422L507.34 603.585C508.718 602.789 509.492 601.71 509.492 600.585V562.203C509.492 559.86 506.202 557.961 502.144 557.961L298.327 557.961C294.268 557.961 290.978 559.86 290.978 562.203L290.978 600.585C290.978 601.71 291.752 602.789 293.131 603.585L395.039 662.422C397.909 664.078 402.562 664.078 405.431 662.422Z" fill="url(#paint17_linear_123_3569)" fill-opacity="0.4"/>
<path d="M506.907 603.335L404.998 662.172C402.368 663.69 398.103 663.69 395.472 662.172L293.564 603.335C292.3 602.605 291.591 601.616 291.591 600.585L291.591 562.203C291.591 560.055 294.606 558.314 298.327 558.314L502.144 558.314C505.864 558.314 508.88 560.055 508.88 562.203L508.88 600.585C508.88 601.616 508.17 602.605 506.907 603.335Z" stroke="#282828" stroke-opacity="0.6"/>
<rect width="130" height="130" rx="6" transform="matrix(0.866025 -0.5 0.866025 0.5 287.734 561.421)" fill="#282828"/>
<rect width="130" height="130" rx="6" transform="matrix(0.866025 -0.5 0.866025 0.5 287.734 561.421)" fill="url(#paint18_linear_123_3569)" fill-opacity="0.4"/>
<rect opacity="0.4" x="0.866025" width="92.554" height="92.554" rx="5.5" transform="matrix(0.866025 -0.5 0.866025 0.5 319.659 562.091)" stroke="#444444"/>
<g opacity="0.04">
<rect width="6.9697" height="6.9697" rx="1" transform="matrix(0.866025 -0.5 2.20305e-08 1 417.963 628.488)" fill="white"/>
<rect width="6.9697" height="6.9697" rx="1" transform="matrix(0.866025 -0.5 2.20305e-08 1 438.729 627.293)" fill="white"/>
<rect width="6.9697" height="6.9697" rx="1" transform="matrix(0.866025 -0.5 2.20305e-08 1 448.963 609.488)" fill="white"/>
<rect width="6.9697" height="6.9697" rx="1" transform="matrix(0.866025 -0.5 2.20305e-08 1 428.18 622.216)" fill="white"/>
<rect width="6.9697" height="6.9697" rx="1" transform="matrix(0.866025 -0.5 2.20305e-08 1 459.18 603.216)" fill="white"/>
<rect width="6.9697" height="6.9697" rx="1" transform="matrix(0.866025 -0.5 2.20305e-08 1 459.164 614.747)" fill="white"/>
<rect width="6.9697" height="6.9697" rx="1" transform="matrix(0.866025 -0.5 2.20305e-08 1 490.164 595.747)" fill="white"/>
</g>
<path d="M405.431 589.815L507.34 530.978C508.718 530.183 509.492 529.103 509.492 527.978V489.597C509.492 487.254 506.202 485.354 502.144 485.354L298.327 485.354C294.268 485.354 290.978 487.254 290.978 489.597L290.978 527.978C290.978 529.103 291.752 530.183 293.131 530.978L395.039 589.815C397.909 591.472 402.562 591.472 405.431 589.815Z" fill="#282828"/>
<path d="M405.431 589.815L507.34 530.978C508.718 530.183 509.492 529.103 509.492 527.978V489.597C509.492 487.254 506.202 485.354 502.144 485.354L298.327 485.354C294.268 485.354 290.978 487.254 290.978 489.597L290.978 527.978C290.978 529.103 291.752 530.183 293.131 530.978L395.039 589.815C397.909 591.472 402.562 591.472 405.431 589.815Z" fill="url(#paint19_linear_123_3569)" fill-opacity="0.4"/>
<path d="M506.907 530.728L404.998 589.565C402.368 591.084 398.103 591.084 395.472 589.565L293.564 530.728C292.3 529.999 291.591 529.01 291.591 527.978L291.591 489.597C291.591 487.449 294.606 485.708 298.327 485.708L502.144 485.708C505.864 485.708 508.88 487.449 508.88 489.597L508.88 527.978C508.88 529.01 508.17 529.999 506.907 530.728Z" stroke="#282828" stroke-opacity="0.6"/>
<rect width="130" height="130" rx="6" transform="matrix(0.866025 -0.5 0.866025 0.5 287.734 488.814)" fill="#282828"/>
<rect opacity="0.4" x="0.866025" width="92.554" height="92.554" rx="5.5" transform="matrix(0.866025 -0.5 0.866025 0.5 319.659 489.485)" stroke="#444444"/>
<g opacity="0.04">
<rect width="6.9697" height="6.9697" rx="1" transform="matrix(0.866025 -0.5 2.20305e-08 1 417.963 555.882)" fill="white"/>
<rect width="6.9697" height="6.9697" rx="1" transform="matrix(0.866025 -0.5 2.20305e-08 1 438.729 554.687)" fill="white"/>
<rect width="6.9697" height="6.9697" rx="1" transform="matrix(0.866025 -0.5 2.20305e-08 1 448.963 536.882)" fill="white"/>
<rect width="6.9697" height="6.9697" rx="1" transform="matrix(0.866025 -0.5 2.20305e-08 1 428.18 549.609)" fill="white"/>
<rect width="6.9697" height="6.9697" rx="1" transform="matrix(0.866025 -0.5 2.20305e-08 1 459.18 530.609)" fill="white"/>
<rect width="6.9697" height="6.9697" rx="1" transform="matrix(0.866025 -0.5 2.20305e-08 1 479.947 529.414)" fill="white"/>
<rect width="6.9697" height="6.9697" rx="1" transform="matrix(0.866025 -0.5 2.20305e-08 1 438.398 543.337)" fill="white"/>
<rect width="6.9697" height="6.9697" rx="1" transform="matrix(0.866025 -0.5 2.20305e-08 1 459.164 542.141)" fill="white"/>
<rect width="6.9697" height="6.9697" rx="1" transform="matrix(0.866025 -0.5 2.20305e-08 1 469.398 524.337)" fill="white"/>
<rect width="6.9697" height="6.9697" rx="1" transform="matrix(0.866025 -0.5 2.20305e-08 1 490.164 523.141)" fill="white"/>
</g>
<path d="M405.431 523.038L507.34 464.201C508.718 463.405 509.492 462.326 509.492 461.201V422.82C509.492 420.476 506.202 418.577 502.144 418.577L298.327 418.577C294.268 418.577 290.978 420.476 290.978 422.82L290.978 461.201C290.978 462.326 291.752 463.405 293.131 464.201L395.039 523.038C397.909 524.695 402.562 524.695 405.431 523.038Z" fill="#282828"/>
<path d="M405.431 523.038L507.34 464.201C508.718 463.405 509.492 462.326 509.492 461.201V422.82C509.492 420.476 506.202 418.577 502.144 418.577L298.327 418.577C294.268 418.577 290.978 420.476 290.978 422.82L290.978 461.201C290.978 462.326 291.752 463.405 293.131 464.201L395.039 523.038C397.909 524.695 402.562 524.695 405.431 523.038Z" fill="url(#paint20_linear_123_3569)" fill-opacity="0.4"/>
<path d="M506.907 463.951L404.998 522.788C402.368 524.307 398.103 524.307 395.472 522.788L293.564 463.951C292.3 463.222 291.591 462.232 291.591 461.201L291.591 422.82C291.591 420.672 294.606 418.93 298.327 418.93L502.144 418.931C505.864 418.931 508.88 420.672 508.88 422.82L508.88 461.201C508.88 462.232 508.17 463.222 506.907 463.951Z" stroke="#282828" stroke-opacity="0.6"/>
<rect width="130" height="130" rx="6" transform="matrix(0.866025 -0.5 0.866025 0.5 287.734 422.037)" fill="#F8F8F8"/>
<rect width="130" height="130" rx="6" transform="matrix(0.866025 -0.5 0.866025 0.5 287.734 422.037)" fill="url(#paint21_linear_123_3569)"/>
<rect opacity="0.4" x="0.866025" width="98.1077" height="98.1077" rx="5.5" transform="matrix(0.866025 -0.5 0.866025 0.5 314.848 422.707)" stroke="white"/>
<g opacity="0.04">
<rect width="6.9697" height="6.9697" rx="1" transform="matrix(-0.866025 0.5 -2.20305e-08 -1 496.201 459.851)" fill="white"/>
<rect width="6.9697" height="6.9697" rx="1" transform="matrix(-0.866025 0.5 -2.20305e-08 -1 475.436 461.046)" fill="white"/>
<rect width="6.9697" height="6.9697" rx="1" transform="matrix(-0.866025 0.5 -2.20305e-08 -1 485.984 466.124)" fill="white"/>
<rect width="6.9697" height="6.9697" rx="1" transform="matrix(-0.866025 0.5 -2.20305e-08 -1 434.217 486.319)" fill="white"/>
<rect width="6.9697" height="6.9697" rx="1" transform="matrix(-0.866025 0.5 -2.20305e-08 -1 475.766 472.396)" fill="white"/>
<rect width="6.9697" height="6.9697" rx="1" transform="matrix(-0.866025 0.5 -2.20305e-08 -1 455 473.592)" fill="white"/>
<rect width="6.9697" height="6.9697" rx="1" transform="matrix(-0.866025 0.5 -2.20305e-08 -1 424 492.592)" fill="white"/>
</g>
<path d="M368.426 629.178C368.426 628.072 367.648 626.727 366.69 626.176L319.607 599.106C318.651 598.556 317.878 599.005 317.878 600.108L317.878 603.077C317.878 604.184 318.656 605.529 319.614 606.08L366.697 633.15C367.653 633.699 368.426 633.251 368.426 632.148L368.426 629.178Z" fill="white"/>
<path d="M368.426 629.178C368.426 628.072 367.648 626.727 366.69 626.176L319.607 599.106C318.651 598.556 317.878 599.005 317.878 600.108L317.878 603.077C317.878 604.184 318.656 605.529 319.614 606.08L366.697 633.15C367.653 633.699 368.426 633.251 368.426 632.148L368.426 629.178Z" fill="url(#paint22_linear_123_3569)"/>
<path d="M402.149 408.199L384.656 418.298C383.978 418.69 383.978 419.325 384.656 419.717L398.84 427.906C399.519 428.298 400.619 428.298 401.298 427.906L418.79 417.807" stroke="white" stroke-width="4.2564"/>
<path d="M397.988 420.322L410.568 413.059" stroke="white" stroke-width="4.2564"/>
<rect x="3.68615" width="39.15" height="39.15" rx="7.8034" transform="matrix(0.866025 -0.5 0.866025 0.5 363.467 420.908)" stroke="white" stroke-width="4.2564"/>
<ellipse opacity="0.4" cx="274" cy="192.5" rx="11" ry="11.5" fill="url(#paint23_linear_123_3569)" fill-opacity="0.4"/>
<circle opacity="0.4" cx="607.5" cy="292.5" r="13.5" fill="url(#paint24_linear_123_3569)" fill-opacity="0.4"/>
<circle opacity="0.4" r="13.5" transform="matrix(1 0 0 -1 207.5 373.5)" fill="url(#paint25_linear_123_3569)" fill-opacity="0.4"/>
<path d="M263 388.012L263 410.566" stroke="#2D2D2D"/>
<path d="M263 357L263 379.554" stroke="#2D2D2D"/>
<path d="M263 446L263 469.964" stroke="#2D2D2D"/>
<path d="M263 417L263 439.554" stroke="#FF5574"/>
<path d="M541 198.012L541 220.566" stroke="#2D2D2D"/>
<path d="M541 167L541 189.554" stroke="#2D2D2D"/>
<path d="M541 229.024L541 252.988" stroke="#2D2D2D"/>
<path d="M541 261.445L541 284" stroke="#2D2D2D"/>
<path d="M572.5 590.5L628.5 624.5L637.5 663L694.5 697.5" stroke="#2D2D2D"/>
<path d="M589.5 581L643.5 613L670.5 646L725.5 678.5" stroke="#2D2D2D"/>
<path d="M605.5 571.5L758 659.5" stroke="#2D2D2D"/>
<path d="M623 561.5L679 594.5L731.5 608.5L789 641" stroke="#2D2D2D"/>
<path d="M640 552L694 584L762.5 589.5L822.5 623" stroke="#2D2D2D"/>
</g>
<defs>
<filter id="filter0_d_123_3569" x="-27.3828" y="-102.435" width="2322.89" height="1401.99" filterUnits="userSpaceOnUse" color-interpolation-filters="sRGB">
<feFlood flood-opacity="0" result="BackgroundImageFix"/>
<feColorMatrix in="SourceAlpha" type="matrix" values="0 0 0 0 0 0 0 0 0 0 0 0 0 0 0 0 0 0 127 0" result="hardAlpha"/>
<feOffset dy="72"/>
<feGaussianBlur stdDeviation="36"/>
<feComposite in2="hardAlpha" operator="out"/>
<feColorMatrix type="matrix" values="0 0 0 0 0 0 0 0 0 0 0 0 0 0 0 0 0 0 0.16 0"/>
<feBlend mode="normal" in2="BackgroundImageFix" result="effect1_dropShadow_123_3569"/>
<feBlend mode="normal" in="SourceGraphic" in2="effect1_dropShadow_123_3569" result="shape"/>
</filter>
<linearGradient id="paint0_linear_123_3569" x1="368" y1="397.384" x2="467.295" y2="436.712" gradientUnits="userSpaceOnUse">
<stop stop-opacity="0"/>
<stop offset="1"/>
</linearGradient>
<linearGradient id="paint1_linear_123_3569" x1="89.3942" y1="89.3132" x2="72.2276" y2="-13.7279" gradientUnits="userSpaceOnUse">
<stop stop-opacity="0"/>
<stop offset="1"/>
</linearGradient>
<linearGradient id="paint2_linear_123_3569" x1="368" y1="324.778" x2="467.295" y2="364.105" gradientUnits="userSpaceOnUse">
<stop stop-opacity="0"/>
<stop offset="1"/>
</linearGradient>
<linearGradient id="paint3_linear_123_3569" x1="89.3942" y1="89.3132" x2="72.2276" y2="-13.7279" gradientUnits="userSpaceOnUse">
<stop stop-opacity="0"/>
<stop offset="1"/>
</linearGradient>
<linearGradient id="paint4_linear_123_3569" x1="368" y1="258" x2="467.295" y2="297.328" gradientUnits="userSpaceOnUse">
<stop stop-opacity="0"/>
<stop offset="1"/>
</linearGradient>
<linearGradient id="paint5_linear_123_3569" x1="89.3942" y1="89.3132" x2="72.2276" y2="-13.7279" gradientUnits="userSpaceOnUse">
<stop stop-opacity="0"/>
<stop offset="1"/>
</linearGradient>
<linearGradient id="paint6_linear_123_3569" x1="215.522" y1="549.407" x2="478.882" y2="829.733" gradientUnits="userSpaceOnUse">
<stop stop-color="#44FFF9"/>
<stop offset="0.21875" stop-color="#7188FF"/>
<stop offset="0.473958" stop-color="#FF5178"/>
<stop offset="0.739583" stop-color="#FFB719"/>
<stop offset="1" stop-color="#D153D1"/>
</linearGradient>
<linearGradient id="paint7_linear_123_3569" x1="135.344" y1="632.603" x2="398.705" y2="912.929" gradientUnits="userSpaceOnUse">
<stop stop-color="#44FFF9"/>
<stop offset="0.21875" stop-color="#7188FF"/>
<stop offset="0.473958" stop-color="#FF5178"/>
<stop offset="0.739583" stop-color="#FFB719"/>
<stop offset="1" stop-color="#D153D1"/>
</linearGradient>
<linearGradient id="paint8_linear_123_3569" x1="150.998" y1="641.285" x2="414.359" y2="921.611" gradientUnits="userSpaceOnUse">
<stop stop-color="#44FFF9"/>
<stop offset="0.21875" stop-color="#7188FF"/>
<stop offset="0.473958" stop-color="#FF5178"/>
<stop offset="0.739583" stop-color="#FFB719"/>
<stop offset="1" stop-color="#D153D1"/>
</linearGradient>
<linearGradient id="paint9_linear_123_3569" x1="166.102" y1="650.228" x2="429.462" y2="930.554" gradientUnits="userSpaceOnUse">
<stop stop-color="#44FFF9"/>
<stop offset="0.21875" stop-color="#7188FF"/>
<stop offset="0.473958" stop-color="#FF5178"/>
<stop offset="0.739583" stop-color="#FFB719"/>
<stop offset="1" stop-color="#D153D1"/>
</linearGradient>
<linearGradient id="paint10_linear_123_3569" x1="181.885" y1="659.071" x2="445.245" y2="939.397" gradientUnits="userSpaceOnUse">
<stop stop-color="#44FFF9"/>
<stop offset="0.21875" stop-color="#7188FF"/>
<stop offset="0.473958" stop-color="#FF5178"/>
<stop offset="0.739583" stop-color="#FFB719"/>
<stop offset="1" stop-color="#D153D1"/>
</linearGradient>
<linearGradient id="paint11_linear_123_3569" x1="633.615" y1="495.459" x2="473.347" y2="398.928" gradientUnits="userSpaceOnUse">
<stop stop-color="#808080"/>
<stop offset="1" stop-color="#EAEAEA" stop-opacity="0"/>
</linearGradient>
<linearGradient id="paint12_linear_123_3569" x1="520.573" y1="491.959" x2="619.867" y2="531.287" gradientUnits="userSpaceOnUse">
<stop stop-opacity="0"/>
<stop offset="1"/>
</linearGradient>
<linearGradient id="paint13_linear_123_3569" x1="89.3942" y1="89.3132" x2="72.2276" y2="-13.7279" gradientUnits="userSpaceOnUse">
<stop stop-opacity="0"/>
<stop offset="1"/>
</linearGradient>
<linearGradient id="paint14_linear_123_3569" x1="633.615" y1="422.853" x2="473.347" y2="326.322" gradientUnits="userSpaceOnUse">
<stop stop-color="#808080"/>
<stop offset="1" stop-color="#EAEAEA" stop-opacity="0"/>
</linearGradient>
<linearGradient id="paint15_linear_123_3569" x1="520.573" y1="419.353" x2="619.867" y2="458.68" gradientUnits="userSpaceOnUse">
<stop stop-opacity="0"/>
<stop offset="1"/>
</linearGradient>
<linearGradient id="paint16_linear_123_3569" x1="89.3942" y1="89.3132" x2="72.2276" y2="-13.7279" gradientUnits="userSpaceOnUse">
<stop stop-opacity="0"/>
<stop offset="1"/>
</linearGradient>
<linearGradient id="paint17_linear_123_3569" x1="368" y1="580.381" x2="467.295" y2="619.709" gradientUnits="userSpaceOnUse">
<stop stop-opacity="0"/>
<stop offset="1"/>
</linearGradient>
<linearGradient id="paint18_linear_123_3569" x1="89.3942" y1="89.3132" x2="72.2276" y2="-13.7279" gradientUnits="userSpaceOnUse">
<stop stop-opacity="0"/>
<stop offset="1"/>
</linearGradient>
<linearGradient id="paint19_linear_123_3569" x1="368" y1="507.775" x2="467.295" y2="547.102" gradientUnits="userSpaceOnUse">
<stop stop-opacity="0"/>
<stop offset="1"/>
</linearGradient>
<linearGradient id="paint20_linear_123_3569" x1="368" y1="440.997" x2="467.295" y2="480.325" gradientUnits="userSpaceOnUse">
<stop stop-opacity="0"/>
<stop offset="1"/>
</linearGradient>
<linearGradient id="paint21_linear_123_3569" x1="-229.446" y1="54.4568" x2="358.648" y2="52.8093" gradientUnits="userSpaceOnUse">
<stop stop-color="#44FFF9"/>
<stop offset="0.166667" stop-color="#7188FF"/>
<stop offset="0.511814" stop-color="#FF5178"/>
<stop offset="0.833333" stop-color="#FFB719"/>
<stop offset="1" stop-color="#D153D1"/>
</linearGradient>
<linearGradient id="paint22_linear_123_3569" x1="457.641" y1="681.653" x2="226.399" y2="676.981" gradientUnits="userSpaceOnUse">
<stop stop-color="#44FFF9"/>
<stop offset="0.166667" stop-color="#7188FF"/>
<stop offset="0.511814" stop-color="#FF5178"/>
<stop offset="0.833333" stop-color="#FFB719"/>
<stop offset="1" stop-color="#D153D1"/>
</linearGradient>
<linearGradient id="paint23_linear_123_3569" x1="301.28" y1="206.76" x2="272.724" y2="149.251" gradientUnits="userSpaceOnUse">
<stop stop-color="#EFEFEF" stop-opacity="0"/>
<stop offset="1" stop-color="#C1C1C1"/>
</linearGradient>
<linearGradient id="paint24_linear_123_3569" x1="640.98" y1="309.24" x2="608.367" y2="240.574" gradientUnits="userSpaceOnUse">
<stop stop-color="#EFEFEF" stop-opacity="0"/>
<stop offset="1" stop-color="#C1C1C1"/>
</linearGradient>
<linearGradient id="paint25_linear_123_3569" x1="54" y1="35.5909" x2="18.0228" y2="-40.1616" gradientUnits="userSpaceOnUse">
<stop stop-color="white" stop-opacity="0"/>
<stop offset="1" stop-color="#FF6D5E"/>
</linearGradient>
<clipPath id="clip0_123_3569">
<rect width="895" height="982" fill="white"/>
</clipPath>
</defs>
</svg>
