<?xml version="1.0" encoding="utf-8"?>
<svg version="1.1" id="Ebene_1" xmlns="http://www.w3.org/2000/svg" xmlns:xlink="http://www.w3.org/1999/xlink" x="0px" y="0px"
	 viewBox="0 0 256 256" style="enable-background:new 0 0 256 256;" xml:space="preserve">
<style type="text/css">
	.st0{display:none;fill:#1F5AFE;}
	.st1{fill:#F6F6F6;}
	.st2{fill:#1F5AFE;}
</style>
<g>
	<path class="st0" d="M220.4,98.8c-3.9,32.8-7.7,65.7-11.5,98.5c-0.6,5.3-1.4,10.6-1.9,15.9c-0.2,1.8-0.8,2.5-2.7,2.5
		c-30.7-0.1-61.5,0-92.8,0c2.3-5,4.3-9.7,6.5-14.3c15.3-32.6,30.7-65.1,46-97.7c3.2-6.7,6.4-13.4,9.5-20.2c0.9-2,2-2.7,4.2-2.6
		c13.6,0.1,27.1,0.1,40.7,0c2.7,0,5.2-0.3,8.1-0.1C221.7,83.7,221.2,91.9,220.4,98.8z"/>
	<path class="st1" d="M95.1,40.3c14.8,0,29.6,0.1,44.4,0c2.8,0,3.5,0.4,2.1,3.2c-16.4,34.5-32.6,69.1-48.9,103.7
		c-4.2,9-8.5,17.9-12.6,26.9c-0.8,1.8-1.8,2.5-3.9,2.5c-14.1-0.1-28.1-0.1-42.2,0c-2.3,0-3-0.4-2.7-2.9c4.3-35.7,8.4-71.3,12.6-107
		c0.9-7.7,2.1-15.3,2.7-23c0.3-3.3,1.6-3.6,4.3-3.6C65.8,40.4,80.5,40.3,95.1,40.3z"/>
	<path class="st2" d="M158.7,216.4c-14.8,0-29.6,0-44.4,0.1c-2.8,0-3.5-0.4-2.1-3.2c16.3-34.6,32.6-69.2,48.8-103.8
		c4.2-9,8.4-17.9,12.5-27c0.8-1.8,1.8-2.5,3.9-2.5c14.1,0.1,28.1,0.1,42.2,0c2.3,0,3,0.4,2.7,2.9c-4.2,35.7-8.4,71.3-12.5,107
		c-0.9,7.7-2.1,15.3-2.6,23c-0.2,3.3-1.5,3.6-4.3,3.6C188,216.3,173.3,216.4,158.7,216.4z"/>
</g>
</svg>
