<?xml version="1.0" encoding="utf-8"?>
<svg version="1.1" id="Ebene_2" xmlns="http://www.w3.org/2000/svg" xmlns:xlink="http://www.w3.org/1999/xlink" x="0px" y="0px"
	 viewBox="0 0 256 256" style="enable-background:new 0 0 256 256;" xml:space="preserve">
<style type="text/css">
	.st0{fill:#F6F6F6;}
</style>
<path class="st0" d="M192.9,30.3h-87.8v118.4h118.5V60.9C223.6,44.1,209.8,30.3,192.9,30.3C193,30.3,192.9,30.3,192.9,30.3z"/>
<path class="st0" d="M77.8,30.3H62.6C45.8,30.3,32,44.1,32,60.9V76h45.8V30.3z"/>
<path class="st0" d="M32,103.4h45.8v45.8H32V103.4z"/>
<path class="st0" d="M178.2,221.9h15.1c16.8,0,30.6-13.8,30.6-30.6c0,0,0-0.1,0-0.1v-14.6h-45.8V221.9z"/>
<path class="st0" d="M105.1,176.5h45.8v45.8h-45.8V176.5z"/>
<path class="st0" d="M32,176.5v15.1c0,16.8,13.8,30.6,30.6,30.6h15.1v-45.8H32z"/>
</svg>
