<?xml version="1.0" encoding="UTF-8"?>
<svg id="Ebene_2" xmlns="http://www.w3.org/2000/svg" version="1.1" viewBox="0 0 256 256">
  <!-- Generator: Adobe Illustrator 29.3.0, SVG Export Plug-In . SVG Version: 2.1.0 Build 146)  -->
  <defs>
    <style>
      .st0 {
        fill: #fff;
        fill-rule: evenodd;
      }
    </style>
  </defs>
  <path class="st0" d="M132,200c49.7,0,72-22.3,72-72s-22.3-72-72-72-72,22.3-72,72,22.3,72,72,72ZM118.5,86.5h20v33h-12.4v-22.4h-11.1l3.5-10.6ZM132,169.5c12.6,0,22.8-10.2,22.8-22.8s-10.2-22.8-22.8-22.8-22.8,10.2-22.8,22.8,10.2,22.8,22.8,22.8ZM132,159.1c6.9,0,12.5-5.6,12.5-12.5s-5.6-12.5-12.5-12.5-12.5,5.6-12.5,12.5,5.6,12.5,12.5,12.5Z"/>
</svg>