<?xml version="1.0" encoding="utf-8"?>
<svg version="1.1" id="Ebene_1" xmlns="http://www.w3.org/2000/svg" xmlns:xlink="http://www.w3.org/1999/xlink" x="0px" y="0px"
	 viewBox="0 0 256 256" style="enable-background:new 0 0 256 256;" xml:space="preserve">
<g>
	<path d="M194.1,100.9c0-2.6-1-3.8-3.2-4.8c-3.9-1.7-8-2.7-12.2-3.3c-2.7-0.4-3.2-1.5-3.1-3.8c0.1-5.7,0.2-11.4-0.1-17.2
		c-1-23.6-19.8-42.9-43.4-44.7C108.2,25.3,86.5,41.8,82,65.3c-1.5,8-0.7,16.1-0.8,24.2c0,2.1-0.5,3-2.8,3.3c-4,0.6-8,1.6-11.9,3
		c-2.7,1-4,2.6-4,5.8c0.1,29.2,0.1,58.4,0,87.7c0,3.9,1.5,5.9,5,7.1c8.2,2.9,16.3,6,24.4,9c11.6,4.3,23.2,8.5,34.9,12.7
		c0.8,0.2,2,0.2,2.9-0.1c0.4-0.2,0.9-0.4,1.3-0.6c19.5-7,38.9-14.1,58.4-21.1c3-1.1,4.6-2.7,4.6-6.2
		C194,160.4,194,130.6,194.1,100.9z M103.7,74c0.2-15.4,10-24.8,25.3-24.4c14.9,0.4,23.7,9.2,24.1,24.1c0.1,4.3-0.1,8.7,0.1,13
		c0.1,2.4-0.4,3.1-3,3c-7.3-0.2-14.7-0.1-22-0.1c-7.2,0-14.4-0.1-21.6,0.1c-2.2,0-3.1-0.2-3-2.7C103.9,82.7,103.7,78.4,103.7,74z
		 M165.3,177.3c-11.2,3.9-22.4,8.1-33.5,12.2c-2.1,0.8-4,0.9-6.1,0.1c-11.3-4.2-22.5-8.3-33.9-12.3c-2.3-0.8-2.9-2-2.9-4.3
		c0.1-17.6,0.1-35.3,0-52.9c0-3,1.1-4.2,3.8-4.8c6.5-1.4,13-1.9,19.6-2.1c15.6-0.4,31.3-0.7,46.9,1.2c8.8,1.1,8.9,1,8.9,9.8
		c0,7.5,0,14.9,0,22.4c0,8.9-0.1,17.9,0,26.8C168,175.5,167.4,176.5,165.3,177.3z"/>
</g>
</svg>
