<svg xmlns="http://www.w3.org/2000/svg" width="256" height="256"><path fill="#1976D2" fill-opacity=".016" fill-rule="evenodd" d="M0 128.004v128.004l128.25-.254 128.25-.254.254-127.75L257.008 0H0v128.004m.485.496c0 70.4.119 99.053.265 63.672.146-35.38.146-92.98 0-128C.604 29.153.485 58.1.485 128.5"/><path fill="#1976D2" fill-opacity=".231" fill-rule="evenodd" d="M38.348 1.42C20.199 5.822 4.904 21.584 1.105 39.799-.634 48.137-.401 211.912 1.359 218.5c4.195 15.701 16.274 29.113 31.358 34.814L38.5 255.5h180l6.614-2.802c13.843-5.864 24.462-17.674 29.283-32.566l2.603-8.041V43.484l-2.878-8.139c-6.263-17.711-17.501-28.526-35.054-33.733-4.819-1.43-15.017-1.602-90.5-1.527-64.381.064-86.321.389-90.22 1.335M45.5 28.872C38.551 30.71 33.728 34.543 30.617 40.7 29.166 43.572 29 52.468 29 127.254v83.353l2.533 5.084c1.583 3.175 4.083 6.157 6.664 7.946l4.131 2.863 83.586.299c57.517.205 84.741-.037 87.291-.777 4.802-1.394 9.388-5.303 11.825-10.081 1.87-3.666 1.952-6.894 2.206-87.624.253-80.19.183-83.968-1.603-87.317-2.58-4.837-5.517-7.88-9.633-9.982-3.248-1.659-9.398-1.829-85.5-2.363-45.1-.317-83.35-.219-85 .217M.478 129c0 47.575.122 67.038.272 43.25.149-23.787.149-62.712 0-86.5C.6 61.963.478 81.425.478 129m64.74-70.337c-1.805.89-4.28 3.017-5.5 4.727L57.5 66.5l-.259 61c-.253 59.483-.209 61.081 1.741 64.259 1.1 1.793 3.466 4.153 5.259 5.246 3.165 1.93 5.166 1.988 69.536 1.991l66.278.004-.278-14.25-.277-14.25-56.65-.258-56.649-.258-.403-41.742c-.222-22.958-.199-42.147.051-42.642.267-.528 23.77-.669 56.803-.341L199 85.82V57l-65.25.023c-58.058.02-65.612.201-68.532 1.64M114 128.652v14.651l20.75-.64c11.412-.352 30.762-.646 43-.652L200 142v-28h-86v14.652"/><path fill="#1976D2" fill-opacity=".181" fill-rule="evenodd" d="M167.196.85c-1.267.357-3.146 2.225-4.176 4.15-3.083 5.762-7.435 15.453-7.253 16.154.093.36-.492 1.202-1.299 1.873-4.23 3.51-.748 4.023 29.918 4.401l25.599.315 5.758 2.879c3.922 1.96 6.713 4.26 8.757 7.214l3 4.335.267 82.995c.184 57.087-.07 84.246-.813 87.005-.594 2.207-2.912 5.998-5.156 8.432-7.163 7.772-3.422 7.492-95.901 7.175-81.156-.277-81.409-.284-85.397-2.431-4.635-2.494-7.51-5.43-10.133-10.347-1.751-3.282-1.898-7.491-2.367-67.7-.319-40.901-.863-64.523-1.5-65.088C25.25 81.104 8.855 75 7.128 75c-.699 0-1.997-.726-2.885-1.614C.74 69.883.509 74.404.504 146.5l-.004 70 2.254 5.919c6.347 16.664 20.432 29.011 37.045 32.476 3.626.756 31.567 1.1 88.5 1.09 91.469-.016 90.208.06 101.807-6.122 7.024-3.744 16.697-13.568 20.236-20.551 1.43-2.821 3.563-8.658 4.741-12.971 2.131-7.8 2.139-8.266 1.571-89.341-.625-89.357-.524-87.856-6.755-100.201C243.434 13.993 228.532 3.295 214 1.029c-7.053-1.1-43.054-1.238-46.804-.179m-29.959 58.919c-1.244 1.502-2.505 3.64-2.801 4.751-.295 1.111-2.277 5.611-4.404 10-2.51 5.18-3.528 8.331-2.901 8.98.597.617 14.527 1.122 36.418 1.319l35.451.318V57l-29.75.019-29.75.02-2.263 2.73M.471 148.5c0 35.2.126 49.455.279 31.678.153-17.778.153-46.578-.001-64C.596 98.755.471 113.3.471 148.5m57.558-51.608c-.729 2.709-.997 18.671-.809 48.326.278 43.988.295 44.303 2.51 47.409 4.699 6.586 2.215 6.373 74.171 6.373H199v-27.983l-56.75-.259-56.75-.258-.5-33.202c-.303-20.142-.893-33.58-1.5-34.164-.55-.53-5.275-2.434-10.5-4.23-5.225-1.796-10.486-3.894-11.691-4.661-2.087-1.329-2.243-1.204-3.28 2.649M114 128v14h85v-28h-85v14"/><path fill="#1976D2" fill-opacity=".323" fill-rule="evenodd" d="M114 128.645v13.645l36.569-.514c25.243-.354 36.919-.864 37.7-1.645.841-.841.727-1.131-.447-1.131-.867 0-2.133-.67-2.813-1.489-.68-.819-1.58-1.276-2.001-1.016-.779.482-16.548-4.595-48.007-15.454-9.624-3.323-18.286-6.041-19.25-6.041-1.583 0-1.751 1.312-1.751 13.645m-40-.069c-12.547 5.096-14.706 6.233-15.516 8.169-.404.965-.962 12.403-1.24 25.418-.489 22.847-.431 23.82 1.685 28.19 1.631 3.369 3.28 5.054 6.447 6.587 4.162 2.015 5.67 2.06 68.968 2.06h64.712l-.278-13.75-.278-13.75-56.75-.258-56.75-.259v-21.3c0-15.505-.34-21.744-1.25-22.93-1.136-1.481-2.027-1.314-9.75 1.823m-49.53 20.221c-.533.461-4.345 2.129-8.47 3.707-4.125 1.577-8.212 3.461-9.081 4.184-.87.724-1.818 1.08-2.108.79C1.918 154.584-.693 181.464.342 203.5c1.073 22.84 9.799 37.904 27.036 46.669 11.365 5.779 11.645 5.795 99.622 5.806 50.393.006 82.931-.375 87-1.02 9.651-1.529 20.024-6.819 26.948-13.743 7.058-7.058 11.362-15.25 14.157-26.942 1.871-7.832 2.027-10.589 1.457-25.77-.351-9.35-.866-18.35-1.144-20-.279-1.65-.599-3.804-.712-4.788-.266-2.311-2.49-3.677-6.015-3.697-1.593-.008-2.545-.443-2.198-1.004.336-.543-.015-.748-.781-.454-.765.294-1.969-.161-2.674-1.011-1.365-1.645-3.545-2.175-2.59-.63.638 1.033-5.654-1.026-6.479-2.12-.802-1.065-4.953-.519-5.08.667-.061.57-.399 13.937-.75 29.704l-.639 28.667-3.006 4.333c-1.967 2.835-4.881 5.283-8.43 7.083l-5.423 2.75h-81.695c-90.168 0-87.006.212-93.778-6.293-6.608-6.348-6.587-6.234-7.242-39.207-.568-28.644-1.28-35.582-3.456-33.703M.392 196c0 7.425.157 10.463.35 6.75.192-3.713.192-9.787 0-13.5-.193-3.713-.35-.675-.35 6.75"/></svg>