<?xml version="1.0" encoding="UTF-8"?><svg id="Layer_2" xmlns="http://www.w3.org/2000/svg" xmlns:xlink="http://www.w3.org/1999/xlink" viewBox="0 0 795.815 218.4094"><defs><style>.cls-1{clip-path:url(#clippath);}.cls-2{fill:none;}.cls-2,.cls-3,.cls-4,.cls-5,.cls-6,.cls-7,.cls-8,.cls-9,.cls-10,.cls-11,.cls-12,.cls-13{stroke-width:0px;}.cls-3{fill:#123cd3;}.cls-4{fill:url(#linear-gradient);}.cls-5{fill:url(#radial-gradient);}.cls-6{fill:url(#radial-gradient-2);}.cls-7{fill:url(#radial-gradient-3);}.cls-8{fill:url(#radial-gradient-4);}.cls-9{fill:url(#linear-gradient-4);}.cls-10{fill:url(#linear-gradient-2);}.cls-11{fill:url(#linear-gradient-3);}.cls-12{fill:url(#linear-gradient-5);}.cls-13{fill:url(#linear-gradient-6);}</style><radialGradient id="radial-gradient" cx="111.5836" cy="153.1068" fx="111.5836" fy="153.1068" r="122.5534" gradientTransform="translate(0 -.0058)" gradientUnits="userSpaceOnUse"><stop offset="0" stop-color="#2a41ea"/><stop offset=".2358" stop-color="#2940e5"/><stop offset="1" stop-color="#161832"/></radialGradient><radialGradient id="radial-gradient-2" cx="128.2629" cy="128.0269" fx="128.2629" fy="128.0269" r="70.1706" gradientTransform="translate(0 -.0058)" gradientUnits="userSpaceOnUse"><stop offset="0" stop-color="#2a41ea"/><stop offset="1" stop-color="#161832"/></radialGradient><linearGradient id="linear-gradient" x1="14.7467" y1="175.3484" x2="205.4668" y2="175.3484" gradientUnits="userSpaceOnUse"><stop offset="0" stop-color="#2c4ddf"/><stop offset="1" stop-color="#da67c6"/></linearGradient><linearGradient id="linear-gradient-2" x1="126.2587" y1="155.862" x2="247.6748" y2="155.862" xlink:href="#linear-gradient"/><linearGradient id="linear-gradient-3" x1="15.0867" y1="59.8385" x2="226.9668" y2="59.8385" xlink:href="#linear-gradient"/><linearGradient id="linear-gradient-4" x1="58.7979" y1="76.3032" x2="200.748" y2="76.3032" gradientUnits="userSpaceOnUse"><stop offset="0" stop-color="#283ecd"/><stop offset=".8714" stop-color="#da67c6"/></linearGradient><linearGradient id="linear-gradient-5" x1="122.3868" y1="100.6129" x2="164.4378" y2="100.6129" gradientUnits="userSpaceOnUse"><stop offset="0" stop-color="#161832"/><stop offset="1" stop-color="#2336c2"/></linearGradient><linearGradient id="linear-gradient-6" x1="102.6868" y1="68.7434" x2="230.7467" y2="68.7434" xlink:href="#linear-gradient-5"/><clipPath id="clippath"><path class="cls-2" d="M205.4668,180.7367c-14.8501,16.8997-34.6901,29.1995-57.29,34.6195-47.74,11.4498-95.6001-10.1798-119.98-50.1992-6.04-9.8999-10.6401-20.9297-13.4501-32.8695h21.4301c14.7999,41.9893,54.83,72.0789,101.8799,72.0789,25.5,0,48.9301-8.8399,67.4102-23.6296ZM104.0867,132.2874c10.26,15.0098,24.2001,27.2996,40.53,35.5595,1.5801.81,3.1899,1.58,4.8301,2.3,13.3999,5.9699,28.25,9.2898,43.8799,9.2898,4.76,0,9.4401-.31,14.03-.91,10.96-13.1498,18.96-28.8896,23.04-46.2393h-126.3101ZM122.9268,2.4094c-4.51,0-8.96.27-13.3301.81-19.28,2.3499-36.99,9.7398-51.73,20.8097q-.01-.01-.02.02C31.8768,43.5188,15.0967,74.3883,15.0867,109.1377v8.1299h16.6001v-8.1299c-.03-20.4897,6.85-39.5094,18.5599-54.7592,11.58-15.0997,27.88-26.5095,46.86-32.0295,5.7-1.67,11.64-2.79,17.76-3.33,8.5701-.75,16.97-.31,25.03,1.2h.02c38.48,3.6699,71.0699,27.5196,87.05,60.849C214.5168,35.7389,172.6568,2.4094,122.9268,2.4094ZM85.4967,65.3184c5.0599-4.2399,10.86-7.6099,17.16-9.9298h.01q.01-.01.02-.01c9.6199-5.9999,20.99-9.4598,33.1599-9.4598,23.21,0,43.48,12.5798,54.3601,31.2895-12.1101-24.9296-37.8201-41.8294-67.1801-41.8694-12.25-.02-23.8099,2.88-34.01,8.0499-24.16,12.2098-40.7201,37.0594-40.76,65.749v8.1299h49.9601v-8.1299c0-7.9698,3.8199-15.0598,9.7599-19.5597l.02-.02q.01,0,.02-.0099c4-3.04,8.97-4.8899,14.35-5.03h.02c2.26-.37,4.5801-.56,6.9399-.56,13.9601,0,26.3801,6.5999,34.3101,16.8597-3.23-16.0698-15.97-29.0195-32.73-32.2495-18.0701-3.4899-35.6899,5.2099-44.17,20.3197-2.0699,3.6799-3.6,7.7499-4.46,12.1098h-16.8199c2.1099-14.3897,9.49-26.8795,20.0399-35.6794Z"/></clipPath><radialGradient id="radial-gradient-3" cx="218.254" cy="143.4542" fx="231.6374" fy="129.7388" r="37.887" gradientUnits="userSpaceOnUse"><stop offset="0" stop-color="#fff" stop-opacity=".6"/><stop offset=".991" stop-color="#fff" stop-opacity="0"/></radialGradient><radialGradient id="radial-gradient-4" cx="64.4325" cy="59.7164" fx="86.0834" fy="37.5284" r="61.2913" xlink:href="#radial-gradient-3"/></defs><g id="logo"><path class="cls-3" d="M289.5383,115.1832c3.5447-6.4121,8.4784-11.4092,14.8184-14.9914,6.3343-3.5793,13.5159-5.3718,21.5389-5.3718,9.8386,0,18.2594,2.5994,25.2622,7.7925s11.6888,12.2767,14.0461,21.2478h-22.1902c-1.6542-3.464-3.9942-6.098-7.0259-7.9107-3.0259-1.8098-6.4726-2.7147-10.3285-2.7147-6.2133,0-11.2507,2.1671-15.1066,6.4928-3.8559,4.3285-5.7867,10.1124-5.7867,17.3516s1.9308,13.0259,5.7867,17.3516c3.8559,4.3285,8.8934,6.4928,15.1066,6.4928,3.8559,0,7.3026-.9049,10.3285-2.7147,3.0317-1.8098,5.3718-4.4438,7.0259-7.9078h22.1902c-2.3573,8.9712-7.0432,16.0346-14.0461,21.1873-7.0029,5.1556-15.4236,7.732-25.2622,7.732-8.0231,0-15.2046-1.7896-21.5389-5.3718-6.3401-3.5793-11.2738-8.5562-14.8184-14.9308-3.5389-6.3746-5.3084-13.6542-5.3084-21.8386s1.7695-15.4813,5.3084-21.8963Z"/><path class="cls-3" d="M377.423,127.7538c2.5591-5.1124,6.0403-9.049,10.4496-11.804,4.4035-2.7522,9.3199-4.1297,14.755-4.1297,4.6398,0,8.7147.9424,12.2133,2.8329,3.5043,1.8876,6.196,4.366,8.0865,7.4352v-9.3256h20.1844v65.8674h-20.1844v-9.3256c-1.9654,3.0692-4.7032,5.5476-8.2017,7.438-3.5043,1.8876-7.5793,2.8329-12.219,2.8329-5.3545,0-10.2305-1.3977-14.634-4.1902-4.4092-2.7925-7.8905-6.7695-10.4496-11.9222-2.5591-5.1556-3.8386-11.1153-3.8386-17.8847s1.2795-12.7061,3.8386-17.8242ZM418.7372,133.7739c-2.7954-2.9107-6.196-4.366-10.2075-4.366-4.0173,0-7.4236,1.4352-10.2133,4.3084-2.7954,2.8732-4.1902,6.8271-4.1902,11.8617,0,5.0375,1.3948,9.0317,4.1902,11.9827,2.7896,2.951,6.196,4.4265,10.2133,4.4265,4.0115,0,7.4121-1.4553,10.2075-4.3689,2.7954-2.9107,4.1902-6.8847,4.1902-11.9222,0-5.0346-1.3948-9.0086-4.1902-11.9222Z"/><path class="cls-3" d="M494.4547,161.5146v17.1153h-10.2709c-7.3141,0-13.0259-1.7896-17.1124-5.3718-4.0922-3.5793-6.1383-9.4207-6.1383-17.5274v-26.2046h-8.0288v-16.7637h8.0288v-16.0519h20.1844v16.0519h13.2219v16.7637h-13.2219v26.4409c0,1.9683.4726,3.3833,1.4179,4.2478.9395.8674,2.513,1.2997,4.7205,1.2997h7.1988Z"/><path class="cls-3" d="M505.4922,127.7538c2.5591-5.1124,6.0403-9.049,10.4496-11.804,4.4035-2.7522,9.3199-4.1297,14.755-4.1297,4.6398,0,8.7147.9424,12.2133,2.8329,3.5043,1.8876,6.196,4.366,8.0865,7.4352v-9.3256h20.1844v65.8674h-20.1844v-9.3256c-1.9654,3.0692-4.7032,5.5476-8.2017,7.438-3.5043,1.8876-7.5793,2.8329-12.219,2.8329-5.3545,0-10.2305-1.3977-14.634-4.1902-4.4092-2.7925-7.8905-6.7695-10.4496-11.9222-2.5591-5.1556-3.8386-11.1153-3.8386-17.8847s1.2795-12.7061,3.8386-17.8242ZM546.8063,133.7739c-2.7954-2.9107-6.196-4.366-10.2075-4.366-4.0173,0-7.4236,1.4352-10.2133,4.3084-2.7954,2.8732-4.1902,6.8271-4.1902,11.8617,0,5.0375,1.3948,9.0317,4.1902,11.9827,2.7896,2.951,6.196,4.4265,10.2133,4.4265,4.0115,0,7.4121-1.4553,10.2075-4.3689,2.7954-2.9107,4.1902-6.8847,4.1902-11.9222,0-5.0346-1.3948-9.0086-4.1902-11.9222Z"/><path class="cls-3" d="M606.0052,91.2812v87.3487h-20.1844v-87.3487h20.1844Z"/><path class="cls-3" d="M687.9187,112.7624l-41.3141,97.147h-21.7176l15.1066-33.5216-26.7896-63.6254h22.5418l15.2277,41.196,15.1124-41.196h21.8329Z"/><path class="cls-3" d="M704.6853,176.6241c-4.4841-1.9683-8.0231-4.6628-10.6225-8.0865-2.5937-3.4236-4.0519-7.2594-4.3689-11.5101h19.9481c.2363,2.2853,1.3026,4.1326,3.1873,5.5476,1.8905,1.4179,4.2133,2.1268,6.9683,2.1268,2.5187,0,4.4611-.4928,5.8444-1.4755,1.3718-.9827,2.0634-2.2622,2.0634-3.8357,0-1.8905-.9856-3.2853-2.951-4.1931-1.9712-.902-5.1527-1.9049-9.562-3.0086-4.7205-1.1009-8.6571-2.2622-11.804-3.4813-3.147-1.219-5.8617-3.147-8.1441-5.7839s-3.4236-6.1988-3.4236-10.683c0-3.7781,1.0432-7.219,3.1297-10.3285,2.0807-3.1095,5.1527-5.5677,9.2046-7.3775s8.8703-2.7147,14.4611-2.7147c8.2651,0,14.7723,2.0461,19.5331,6.1383,4.7608,4.0922,7.4986,9.5216,8.2075,16.2882h-18.6513c-.317-2.2824-1.3199-4.0893-3.0086-5.4294-1.6945-1.3372-3.9193-2.0058-6.6686-2.0058-2.3631,0-4.1729.4524-5.4352,1.3573-1.2565.9049-1.8847,2.1441-1.8847,3.7176,0,1.8876,1.0029,3.3055,3.0086,4.2478,2.0058.9452,5.1354,1.8905,9.3833,2.8329,4.8818,1.2622,8.853,2.5014,11.9251,3.7205,3.0663,1.219,5.7637,3.1873,8.0865,5.902,2.317,2.7147,3.5159,6.3545,3.5965,10.9164,0,3.8588-1.0836,7.3026-3.245,10.3285-2.1671,3.0317-5.2738,5.4121-9.3256,7.1441-4.0519,1.7291-8.755,2.5965-14.1037,2.5965-5.7464,0-10.8588-.9827-15.3487-2.951Z"/><path class="cls-3" d="M795.815,161.5146v17.1153h-10.2709c-7.3141,0-13.0259-1.7896-17.1124-5.3718-4.0922-3.5793-6.1383-9.4207-6.1383-17.5274v-26.2046h-8.0288v-16.7637h8.0288v-16.0519h20.1844v16.0519h13.2219v16.7637h-13.2219v26.4409c0,1.9683.4726,3.3833,1.4179,4.2478.9395.8674,2.513,1.2997,4.7205,1.2997h7.1988Z"/><path class="cls-3" d="M318.2934,37.967c-1.1758,2.219-3.0663,4.0259-5.6657,5.4179-2.5937,1.3919-5.9251,2.0893-9.9827,2.0893h-8.928v19.9712h-8.0692V16.2235h16.9971c3.7752,0,6.9741.6484,9.5965,1.9481,2.6167,1.2968,4.5764,3.0576,5.879,5.2738,1.2968,2.2219,1.9481,4.7003,1.9481,7.438,0,2.5043-.5937,4.8646-1.7752,7.0836ZM309.5153,36.797c1.5101-1.3919,2.2651-3.3631,2.2651-5.9135,0-5.3833-3.049-8.0749-9.1354-8.0749h-8.928v16.0778h8.928c3.0663,0,5.3545-.6974,6.8703-2.0893Z"/><path class="cls-3" d="M340.7141,27.4483c1.9539-1.1095,4.2824-1.6657,6.9741-1.6657v8.3573h-2.0519c-3.1643,0-5.562.804-7.1931,2.4092-1.6254,1.6052-2.4438,4.3919-2.4438,8.3573v20.5389h-8.0692V26.4224h8.0692v5.6657c1.1816-1.9827,2.755-3.5303,4.7147-4.6398Z"/><path class="cls-3" d="M362.2069,63.5693c-2.9741-1.6772-5.3141-4.0375-7.0144-7.0836-1.7003-3.0461-2.5476-6.5735-2.5476-10.5879,0-3.9654.8703-7.4841,2.6225-10.5533,1.7464-3.0692,4.1268-5.4294,7.1527-7.0807,3.0202-1.6542,6.3977-2.4813,10.1268-2.4813s7.1066.8271,10.1268,2.4813c3.0202,1.6513,5.4063,4.0115,7.1527,7.0807,1.7464,3.0692,2.6225,6.5879,2.6225,10.5533s-.8991,7.4841-2.6916,10.5533c-1.7983,3.0692-4.2421,5.4409-7.3314,7.1182-3.0951,1.6744-6.5072,2.513-10.2363,2.513-3.683,0-7.0086-.8386-9.9827-2.513ZM378.034,57.5837c1.8156-.9914,3.2968-2.4784,4.4265-4.4611,1.1354-1.9827,1.7003-4.3919,1.7003-7.2248s-.5418-5.2277-1.6311-7.1873c-1.0836-1.9597-2.5245-3.4352-4.317-4.4265-1.7983-.9942-3.7291-1.4899-5.8098-1.4899-2.0749,0-4,.4957-5.7695,1.4899-1.7695.9914-3.1758,2.4669-4.2133,4.4265-1.0432,1.9597-1.562,4.3545-1.562,7.1873,0,4.2017,1.0778,7.4496,3.2219,9.7378,2.1499,2.2911,4.853,3.4352,8.1095,3.4352,2.0807,0,4.0288-.4957,5.8444-1.487Z"/><path class="cls-3" d="M408.6622,73.0938c0,3.8242-.951,6.5994-2.8646,8.3228s-4.6859,2.585-8.3228,2.585h-4.1787v-6.7983h2.7608c1.6542,0,2.8242-.3199,3.5043-.9568.6859-.6369,1.0317-1.6888,1.0317-3.1527V26.4224h8.0692v46.6715ZM401.0138,19.7624c-.9914-.9914-1.487-2.2161-1.487-3.6801s.4957-2.6916,1.487-3.683,2.219-1.4899,3.683-1.4899c1.4179,0,2.6225.4986,3.6138,1.4899s1.487,2.219,1.487,3.683-.4957,2.6888-1.487,3.6801c-.9914.9942-2.196,1.4899-3.6138,1.4899-1.464,0-2.6916-.4957-3.683-1.4899Z"/><path class="cls-3" d="M454.9101,48.944h-29.8156c.2363,3.1153,1.389,5.6196,3.4697,7.5072,2.0749,1.8876,4.6282,2.8329,7.6484,2.8329,4.3401,0,7.4121-1.8184,9.2046-5.4524h8.7147c-1.1816,3.5879-3.3199,6.5274-6.4092,8.8156-3.0951,2.2911-6.9337,3.4352-11.5101,3.4352-3.7291,0-7.072-.8386-10.0231-2.513-2.951-1.6772-5.2622-4.0375-6.9395-7.0836-1.6772-3.0461-2.513-6.5735-2.513-10.5879,0-4.0115.8127-7.5418,2.4438-10.5879,1.6254-3.0461,3.9135-5.3948,6.8703-7.0461,2.9452-1.6542,6.3343-2.4813,10.1614-2.4813,3.683,0,6.9625.804,9.8444,2.4092,2.8761,1.6052,5.1239,3.8588,6.7262,6.7637,1.6081,2.9049,2.4092,6.245,2.4092,10.0231,0,1.464-.0922,2.7839-.2824,3.9654ZM446.766,42.4281c-.0461-2.9741-1.1124-5.3602-3.1873-7.1527-2.0807-1.7954-4.6513-2.6916-7.7233-2.6916-2.7839,0-5.17.8847-7.1527,2.6542-1.9827,1.7723-3.1643,4.1671-3.5389,7.1902h21.6023Z"/><path class="cls-3" d="M463.0254,35.31c1.6254-3.0461,3.879-5.3948,6.7608-7.0461,2.8818-1.6542,6.1844-2.4813,9.9135-2.4813,4.7205,0,8.6282,1.1239,11.7233,3.366,3.0951,2.2421,5.1816,5.4409,6.2709,9.5965h-8.7147c-.7089-1.9366-1.8386-3.4467-3.4006-4.5331-1.5562-1.0865-3.5159-1.6282-5.879-1.6282-3.3026,0-5.9366,1.1671-7.8963,3.5043s-2.9395,5.6081-2.9395,9.8098.9798,7.4841,2.9395,9.8444c1.9597,2.3631,4.5937,3.5418,7.8963,3.5418,4.6744,0,7.7695-2.0548,9.2795-6.1614h8.7147c-1.1354,3.9654-3.2622,7.1182-6.3746,9.4553-3.1182,2.3372-6.9914,3.5043-11.6196,3.5043-3.7291,0-7.0317-.8386-9.9135-2.513-2.8818-1.6772-5.1354-4.0375-6.7608-7.0836-1.6311-3.0461-2.4438-6.5735-2.4438-10.5879,0-4.0115.8127-7.5418,2.4438-10.5879Z"/><path class="cls-3" d="M515.3251,33.0074v21.6023c0,1.464.3401,2.513,1.0259,3.1527.6859.6369,1.8501.9539,3.5043.9539h4.9568v6.7291h-6.3689c-3.6369,0-6.4265-.8501-8.3573-2.5504-1.9366-1.7003-2.9049-4.4611-2.9049-8.2853v-21.6023h-4.6052v-6.585h4.6052v-9.7032h8.1441v9.7032h9.487v6.585h-9.487Z"/><path class="cls-2" d="M108.0166,89.5481c4.3701-2.47,9.21-4.2,14.3501-5.03-5.3799.14-10.3501,1.99-14.3501,5.03Z"/><path class="cls-2" d="M207.3567,178.5267c-.6199.74-1.25,1.48-1.8899,2.21"/><path class="cls-5" d="M109.8789,167.0245c.0801.05-.0801-.04,0,0-14.52-6.6699-26.3223-19.8573-32.332-34.7371h-41.3701c14.7998,41.9893,54.8301,72.0789,101.8799,72.0789,25.5,0,48.9302-8.8398,67.4102-23.6296.6399-.73,1.27-1.47,1.8899-2.21-4.5898.6-9.27.91-14.03.91-15.6299,0-30.48-3.3199-43.8799-9.2899-4.3799.97-8.9302,1.48-13.6001,1.48-5.3896,0-10.6926.305-15.6824-.975-.0298,0,.0298.01,0,0,0,0,.01,0,.0002,0"/><path class="cls-6" d="M109.8789,167.0245c-.0249-.015-.0127-.0062,0,0-.0127-.0062-.0249-.015,0,0,3.2397,1.46,6.7756,2.7273,10.2854,3.6273.0103,0,0,0,0,0,.0298.01-.0298,0,0,0,4.9897,1.28,10.2927.975,15.6824.975,4.6699,0,9.2202-.5099,13.6001-1.48-1.6401-.72-3.25-1.49-4.8301-2.2999-16.3301-8.2599-30.27-20.5497-40.5298-35.5594h-26.54c6.0098,14.8798,17.812,28.0672,32.332,34.7371Z"/><path class="cls-2" d="M122.3667,84.5181c-5.14.83-9.98,2.56-14.35,5.03,4-3.04,8.97-4.8899,14.35-5.03Z"/><path class="cls-2" d="M122.3667,84.5181c-5.14.83-9.98,2.56-14.35,5.03,4-3.04,8.97-4.8899,14.35-5.03Z"/><path class="cls-4" d="M205.4668,180.7367c-14.8501,16.8997-34.6901,29.1995-57.29,34.6195-47.74,11.4498-95.6001-10.1798-119.98-50.1992-6.04-9.8999-10.6401-20.9297-13.4501-32.8695h21.4301c14.7999,41.9893,54.83,72.0789,101.8799,72.0789,25.5,0,48.9301-8.8399,67.4102-23.6296Z"/><path class="cls-10" d="M230.3968,132.2874c-4.0801,17.3497-12.0801,33.0895-23.04,46.2393-4.59.6-9.27.91-14.03.91-15.6299,0-30.48-3.3199-43.8799-9.2898-1.6401-.72-3.25-1.49-4.8301-2.3-16.33-8.2599-30.27-20.5497-40.53-35.5595h126.3101Z"/><path class="cls-11" d="M226.9668,81.0682c-15.9801-33.3294-48.5701-57.1791-87.05-60.849h-.02c-8.0601-1.51-16.46-1.95-25.03-1.2-6.12.54-12.0601,1.66-17.76,3.33-18.98,5.5199-35.28,16.9297-46.86,32.0295-11.71,15.2498-18.59,34.2695-18.5599,54.7592v8.1299H15.0867v-8.1299c.01-34.7495,16.79-65.619,42.76-85.0887q.01-.03.02-.02c14.74-11.0698,32.45-18.4597,51.73-20.8097,4.3701-.54,8.8201-.81,13.3301-.81,49.73,0,91.59,33.3295,104.04,78.6588Z"/><path class="cls-9" d="M65.4568,100.9979h16.8199c.86-4.3599,2.39-8.4299,4.46-12.1098,8.4801-15.1098,26.1-23.8096,44.17-20.3197,16.76,3.23,29.5,16.1797,32.73,32.2495-7.9299-10.2599-20.35-16.8597-34.3101-16.8597-2.3599,0-4.6799.19-6.9399.56h-.02c-5.38.14-10.35,1.99-14.35,5.03q-.01.0099-.02.0099l-.02.02c-5.9399,4.4999-9.7599,11.5898-9.7599,19.5597v8.1299h-49.9601v-8.1299c.0399-28.6896,16.6-53.5392,40.76-65.749,10.2001-5.1699,21.76-8.0699,34.01-8.0499,29.36.04,55.0699,16.9397,67.1801,41.8694-10.8801-18.7097-31.1501-31.2895-54.3601-31.2895-12.1699,0-23.54,3.4599-33.1599,9.4598q-.01,0-.02.01h-.01c-6.3,2.32-12.1001,5.6899-17.16,9.9298-10.5499,8.7999-17.9301,21.2897-20.0399,35.6794Z"/><path class="cls-12" d="M164.4368,109.1377v8.1299h-16.4301v-8.1299c0-13.6198-11.15-24.6496-24.9-24.6396-.24,0-.48,0-.72.02,2.26-.37,4.5801-.56,6.9399-.56,13.9601,0,26.3801,6.5999,34.3101,16.8597v.01c.55,2.69.8201,5.4699.8,8.3099Z"/><path class="cls-13" d="M230.7467,109.1377v8.1299h-49.77v-8.1299c-.0699-31.7495-26.12-57.4191-58.1801-57.3591-7.0399.01-13.8199,1.2799-20.1099,3.5999,9.6199-5.9999,20.99-9.4598,33.1599-9.4598,23.21,0,43.48,12.5798,54.3601,31.2895,3.5599,7.3099,5.95,15.3198,6.9099,23.7896h16.67c-3.6801-41.1894-34.76-73.4588-73.87-80.7787,38.48,3.6699,71.0699,27.5196,87.05,60.849v.01c2.46,8.9399,3.7799,18.3498,3.7799,28.0596Z"/><g class="cls-1"><circle class="cls-7" cx="208.2967" cy="151.9571" r="48.0564"/><circle class="cls-8" cx="61.2913" cy="61.2913" r="61.2913"/></g></g></svg>