<?xml version="1.0" encoding="UTF-8"?><svg id="Layer_2" xmlns="http://www.w3.org/2000/svg" viewBox="0 0 781.0682 216"><defs><style>.cls-1{fill:#fff;stroke-width:0px;}</style></defs><g id="logo"><path class="cls-1" d="M274.7916,113.026c3.5447-6.4121,8.4784-11.4092,14.8184-14.9914,6.3343-3.5793,13.5159-5.3718,21.5389-5.3718,9.8386,0,18.2594,2.5994,25.2622,7.7925s11.6888,12.2767,14.0461,21.2478h-22.1902c-1.6542-3.464-3.9942-6.098-7.0259-7.9107-3.0259-1.8098-6.4726-2.7147-10.3285-2.7147-6.2133,0-11.2507,2.1671-15.1066,6.4928-3.8559,4.3285-5.7867,10.1124-5.7867,17.3516s1.9308,13.0259,5.7867,17.3516c3.8559,4.3285,8.8934,6.4928,15.1066,6.4928,3.8559,0,7.3026-.9049,10.3285-2.7147,3.0317-1.8098,5.3718-4.4438,7.0259-7.9078h22.1902c-2.3573,8.9712-7.0432,16.0346-14.0461,21.1873-7.0029,5.1556-15.4236,7.732-25.2622,7.732-8.0231,0-15.2046-1.7896-21.5389-5.3718-6.3401-3.5793-11.2738-8.5562-14.8184-14.9308-3.5389-6.3746-5.3084-13.6542-5.3084-21.8386s1.7695-15.4813,5.3084-21.8963Z"/><path class="cls-1" d="M362.6763,125.5966c2.5591-5.1124,6.0403-9.049,10.4496-11.804,4.4035-2.7522,9.3199-4.1297,14.755-4.1297,4.6398,0,8.7147.9424,12.2133,2.8329,3.5043,1.8876,6.196,4.366,8.0865,7.4352v-9.3256h20.1844v65.8674h-20.1844v-9.3256c-1.9654,3.0692-4.7032,5.5476-8.2017,7.438-3.5043,1.8876-7.5793,2.8329-12.219,2.8329-5.3545,0-10.2305-1.3977-14.634-4.1902-4.4092-2.7925-7.8905-6.7695-10.4496-11.9222-2.5591-5.1556-3.8386-11.1153-3.8386-17.8847s1.2795-12.7061,3.8386-17.8242ZM403.9904,131.6168c-2.7954-2.9107-6.196-4.366-10.2075-4.366-4.0173,0-7.4236,1.4352-10.2133,4.3084-2.7954,2.8732-4.1902,6.8271-4.1902,11.8617,0,5.0375,1.3948,9.0317,4.1902,11.9827,2.7896,2.951,6.196,4.4265,10.2133,4.4265,4.0115,0,7.4121-1.4553,10.2075-4.3689,2.7954-2.9107,4.1902-6.8847,4.1902-11.9222,0-5.0346-1.3948-9.0086-4.1902-11.9222Z"/><path class="cls-1" d="M479.708,159.3574v17.1153h-10.2709c-7.3141,0-13.0259-1.7896-17.1124-5.3718-4.0922-3.5793-6.1383-9.4207-6.1383-17.5274v-26.2046h-8.0288v-16.7637h8.0288v-16.0519h20.1844v16.0519h13.2219v16.7637h-13.2219v26.4409c0,1.9683.4726,3.3833,1.4179,4.2478.9395.8674,2.513,1.2997,4.7205,1.2997h7.1988Z"/><path class="cls-1" d="M490.7455,125.5966c2.5591-5.1124,6.0403-9.049,10.4496-11.804,4.4035-2.7522,9.3199-4.1297,14.755-4.1297,4.6398,0,8.7147.9424,12.2133,2.8329,3.5043,1.8876,6.196,4.366,8.0865,7.4352v-9.3256h20.1844v65.8674h-20.1844v-9.3256c-1.9654,3.0692-4.7032,5.5476-8.2017,7.438-3.5043,1.8876-7.5793,2.8329-12.219,2.8329-5.3545,0-10.2305-1.3977-14.634-4.1902-4.4092-2.7925-7.8905-6.7695-10.4496-11.9222-2.5591-5.1556-3.8386-11.1153-3.8386-17.8847s1.2795-12.7061,3.8386-17.8242ZM532.0596,131.6168c-2.7954-2.9107-6.196-4.366-10.2075-4.366-4.0173,0-7.4236,1.4352-10.2133,4.3084-2.7954,2.8732-4.1902,6.8271-4.1902,11.8617,0,5.0375,1.3948,9.0317,4.1902,11.9827,2.7896,2.951,6.196,4.4265,10.2133,4.4265,4.0115,0,7.4121-1.4553,10.2075-4.3689,2.7954-2.9107,4.1902-6.8847,4.1902-11.9222,0-5.0346-1.3948-9.0086-4.1902-11.9222Z"/><path class="cls-1" d="M591.2584,89.124v87.3487h-20.1844v-87.3487h20.1844Z"/><path class="cls-1" d="M673.172,110.6053l-41.3141,97.147h-21.7176l15.1066-33.5216-26.7896-63.6254h22.5418l15.2277,41.196,15.1124-41.196h21.8329Z"/><path class="cls-1" d="M689.9385,174.4669c-4.4841-1.9683-8.0231-4.6628-10.6225-8.0865-2.5937-3.4236-4.0519-7.2594-4.3689-11.5101h19.9481c.2363,2.2853,1.3026,4.1326,3.1873,5.5476,1.8905,1.4179,4.2133,2.1268,6.9683,2.1268,2.5187,0,4.4611-.4928,5.8444-1.4755,1.3718-.9827,2.0634-2.2622,2.0634-3.8357,0-1.8905-.9856-3.2853-2.951-4.1931-1.9712-.902-5.1527-1.9049-9.562-3.0086-4.7205-1.1009-8.6571-2.2622-11.804-3.4813-3.147-1.219-5.8617-3.147-8.1441-5.7839s-3.4236-6.1988-3.4236-10.683c0-3.7781,1.0432-7.219,3.1297-10.3285,2.0807-3.1095,5.1527-5.5677,9.2046-7.3775s8.8703-2.7147,14.4611-2.7147c8.2651,0,14.7723,2.0461,19.5331,6.1383,4.7608,4.0922,7.4986,9.5216,8.2075,16.2882h-18.6513c-.317-2.2824-1.3199-4.0893-3.0086-5.4294-1.6945-1.3372-3.9193-2.0058-6.6686-2.0058-2.3631,0-4.1729.4524-5.4352,1.3573-1.2565.9049-1.8847,2.1441-1.8847,3.7176,0,1.8876,1.0029,3.3055,3.0086,4.2478,2.0058.9452,5.1354,1.8905,9.3833,2.8329,4.8818,1.2622,8.853,2.5014,11.9251,3.7205,3.0663,1.219,5.7637,3.1873,8.0865,5.902,2.317,2.7147,3.5159,6.3545,3.5965,10.9164,0,3.8588-1.0836,7.3026-3.245,10.3285-2.1671,3.0317-5.2738,5.4121-9.3256,7.1441-4.0519,1.7291-8.755,2.5965-14.1037,2.5965-5.7464,0-10.8588-.9827-15.3487-2.951Z"/><path class="cls-1" d="M781.0682,159.3574v17.1153h-10.2709c-7.3141,0-13.0259-1.7896-17.1124-5.3718-4.0922-3.5793-6.1383-9.4207-6.1383-17.5274v-26.2046h-8.0288v-16.7637h8.0288v-16.0519h20.1844v16.0519h13.2219v16.7637h-13.2219v26.4409c0,1.9683.4726,3.3833,1.4179,4.2478.9395.8674,2.513,1.2997,4.7205,1.2997h7.1988Z"/><path class="cls-1" d="M303.5466,35.8099c-1.1758,2.219-3.0663,4.0259-5.6657,5.4179-2.5937,1.3919-5.9251,2.0893-9.9827,2.0893h-8.928v19.9712h-8.0692V14.0664h16.9971c3.7752,0,6.9741.6484,9.5965,1.9481,2.6167,1.2968,4.5764,3.0576,5.879,5.2738,1.2968,2.2219,1.9481,4.7003,1.9481,7.438,0,2.5043-.5937,4.8646-1.7752,7.0836ZM294.7685,34.6398c1.5101-1.3919,2.2651-3.3631,2.2651-5.9135,0-5.3833-3.049-8.0749-9.1354-8.0749h-8.928v16.0778h8.928c3.0663,0,5.3545-.6974,6.8703-2.0893Z"/><path class="cls-1" d="M325.9674,25.2911c1.9539-1.1095,4.2824-1.6657,6.9741-1.6657v8.3573h-2.0519c-3.1643,0-5.562.804-7.1931,2.4092-1.6254,1.6052-2.4438,4.3919-2.4438,8.3573v20.5389h-8.0692V24.2652h8.0692v5.6657c1.1816-1.9827,2.755-3.5303,4.7147-4.6398Z"/><path class="cls-1" d="M347.4602,61.4122c-2.9741-1.6772-5.3141-4.0375-7.0144-7.0836-1.7003-3.0461-2.5476-6.5735-2.5476-10.5879,0-3.9654.8703-7.4841,2.6225-10.5533,1.7464-3.0692,4.1268-5.4294,7.1527-7.0807,3.0202-1.6542,6.3977-2.4813,10.1268-2.4813s7.1066.8271,10.1268,2.4813c3.0202,1.6513,5.4063,4.0115,7.1527,7.0807,1.7464,3.0692,2.6225,6.5879,2.6225,10.5533s-.8991,7.4841-2.6916,10.5533c-1.7983,3.0692-4.2421,5.4409-7.3314,7.1182-3.0951,1.6744-6.5072,2.513-10.2363,2.513-3.683,0-7.0086-.8386-9.9827-2.513ZM363.2873,55.4266c1.8156-.9914,3.2968-2.4784,4.4265-4.4611,1.1354-1.9827,1.7003-4.3919,1.7003-7.2248s-.5418-5.2277-1.6311-7.1873c-1.0836-1.9597-2.5245-3.4352-4.317-4.4265-1.7983-.9942-3.7291-1.4899-5.8098-1.4899-2.0749,0-4,.4957-5.7695,1.4899-1.7695.9914-3.1758,2.4669-4.2133,4.4265-1.0432,1.9597-1.562,4.3545-1.562,7.1873,0,4.2017,1.0778,7.4496,3.2219,9.7378,2.1499,2.2911,4.853,3.4352,8.1095,3.4352,2.0807,0,4.0288-.4957,5.8444-1.487Z"/><path class="cls-1" d="M393.9155,70.9367c0,3.8242-.951,6.5994-2.8646,8.3228s-4.6859,2.585-8.3228,2.585h-4.1787v-6.7983h2.7608c1.6542,0,2.8242-.3199,3.5043-.9568.6859-.6369,1.0317-1.6888,1.0317-3.1527V24.2652h8.0692v46.6715ZM386.2671,17.6053c-.9914-.9914-1.487-2.2161-1.487-3.6801s.4957-2.6916,1.487-3.683,2.219-1.4899,3.683-1.4899c1.4179,0,2.6225.4986,3.6138,1.4899s1.487,2.219,1.487,3.683-.4957,2.6888-1.487,3.6801c-.9914.9942-2.196,1.4899-3.6138,1.4899-1.464,0-2.6916-.4957-3.683-1.4899Z"/><path class="cls-1" d="M440.1633,46.7868h-29.8156c.2363,3.1153,1.389,5.6196,3.4697,7.5072,2.0749,1.8876,4.6282,2.8329,7.6484,2.8329,4.3401,0,7.4121-1.8184,9.2046-5.4524h8.7147c-1.1816,3.5879-3.3199,6.5274-6.4092,8.8156-3.0951,2.2911-6.9337,3.4352-11.5101,3.4352-3.7291,0-7.072-.8386-10.0231-2.513-2.951-1.6772-5.2622-4.0375-6.9395-7.0836-1.6772-3.0461-2.513-6.5735-2.513-10.5879,0-4.0115.8127-7.5418,2.4438-10.5879,1.6254-3.0461,3.9135-5.3948,6.8703-7.0461,2.9452-1.6542,6.3343-2.4813,10.1614-2.4813,3.683,0,6.9625.804,9.8444,2.4092,2.8761,1.6052,5.1239,3.8588,6.7262,6.7637,1.6081,2.9049,2.4092,6.245,2.4092,10.0231,0,1.464-.0922,2.7839-.2824,3.9654ZM432.0192,40.271c-.0461-2.9741-1.1124-5.3602-3.1873-7.1527-2.0807-1.7954-4.6513-2.6916-7.7233-2.6916-2.7839,0-5.17.8847-7.1527,2.6542-1.9827,1.7723-3.1643,4.1671-3.5389,7.1902h21.6023Z"/><path class="cls-1" d="M448.2786,33.1528c1.6254-3.0461,3.879-5.3948,6.7608-7.0461,2.8818-1.6542,6.1844-2.4813,9.9135-2.4813,4.7205,0,8.6282,1.1239,11.7233,3.366,3.0951,2.2421,5.1816,5.4409,6.2709,9.5965h-8.7147c-.7089-1.9366-1.8386-3.4467-3.4006-4.5331-1.5562-1.0865-3.5159-1.6282-5.879-1.6282-3.3026,0-5.9366,1.1671-7.8963,3.5043s-2.9395,5.6081-2.9395,9.8098.9798,7.4841,2.9395,9.8444c1.9597,2.3631,4.5937,3.5418,7.8963,3.5418,4.6744,0,7.7695-2.0548,9.2795-6.1614h8.7147c-1.1354,3.9654-3.2622,7.1182-6.3746,9.4553-3.1182,2.3372-6.9914,3.5043-11.6196,3.5043-3.7291,0-7.0317-.8386-9.9135-2.513-2.8818-1.6772-5.1354-4.0375-6.7608-7.0836-1.6311-3.0461-2.4438-6.5735-2.4438-10.5879,0-4.0115.8127-7.5418,2.4438-10.5879Z"/><path class="cls-1" d="M500.5783,30.8502v21.6023c0,1.464.3401,2.513,1.0259,3.1527.6859.6369,1.8501.9539,3.5043.9539h4.9568v6.7291h-6.3689c-3.6369,0-6.4265-.8501-8.3573-2.5504-1.9366-1.7003-2.9049-4.4611-2.9049-8.2853v-21.6023h-4.6052v-6.585h4.6052v-9.7032h8.1441v9.7032h9.487v6.585h-9.487Z"/><path class="cls-1" d="M133.4264,212.9469c40.743-9.7713,72.5547-41.9065,82.2276-83.064H0c14.1382,60.157,73.8752,97.3459,133.4264,83.064Z"/><path class="cls-1" d="M108.1818,0C48.6306-.0048.3509,47.7794.346,106.7291v8.1334h16.5972v-8.1334c-.086-46.8504,36.0353-85.9858,83.1792-90.1202,50.1883-4.4013,94.4782,32.3054,98.9244,81.9868h-16.6793c-4.2337-37.3533-36.1154-65.6112-74.0866-65.6655-41.2335-.059-74.7083,32.9819-74.7679,73.7989v8.1334h49.956v-8.1334c.0022-13.6074,11.1452-24.6378,24.8915-24.6401,13.7497-.0023,24.8978,11.0294,24.9,24.6401v8.1334h16.4329v-8.1334c.1365-19.7471-13.9511-36.7914-33.5316-40.5693-22.4779-4.337-44.2514,10.185-48.6327,32.4359h-16.8163c4.1374-28.2105,28.5377-49.1565,57.3348-49.2183,32.067-.0688,58.1189,25.6085,58.1884,57.3517v8.1334h49.7642v-8.1334C215.9951,47.7862,167.7261.0048,108.1818,0Z"/></g></svg>