<svg width="24" height="24" viewBox="0 0 24 24" fill="none" xmlns="http://www.w3.org/2000/svg">
<g clip-path="url(#clip0_879_22052)">
<rect x="-7.85449" width="39.7091" height="24" fill="#FAFAFA"/>
<path fill-rule="evenodd" clip-rule="evenodd" d="M31.8545 21.1641V15.9277H23.1272L31.8545 21.1641Z" fill="#012169"/>
<path fill-rule="evenodd" clip-rule="evenodd" d="M21.4489 15.9273L31.8545 22.1771L31.8545 24L18.3272 15.9273H21.4489Z" fill="#C8102E"/>
<path fill-rule="evenodd" clip-rule="evenodd" d="M15.9274 24H27.0547L15.9274 17.2364V24Z" fill="#012169"/>
<path fill-rule="evenodd" clip-rule="evenodd" d="M8.07227 24H-2.83683L8.07227 17.2364L8.07227 24Z" fill="#012169"/>
<path fill-rule="evenodd" clip-rule="evenodd" d="M8.07227 15.9273L-4.87843 24L-7.85501 24L5.3568 15.9273H8.07227Z" fill="#C8102E"/>
<path fill-rule="evenodd" clip-rule="evenodd" d="M-7.85423 21.1641V15.9277H0.873047L-7.85423 21.1641Z" fill="#012169"/>
<rect x="-7.85449" y="9.59961" width="39.7091" height="4.8" fill="#C8102E"/>
<rect x="9.59961" width="4.8" height="24" fill="#C8102E"/>
<path fill-rule="evenodd" clip-rule="evenodd" d="M31.8542 2.83594V8.0723H23.127L31.8542 2.83594Z" fill="#012169"/>
<path fill-rule="evenodd" clip-rule="evenodd" d="M15.9277 8.07273L28.8784 0L31.855 0L18.6432 8.07273H15.9277Z" fill="#C8102E"/>
<path fill-rule="evenodd" clip-rule="evenodd" d="M15.9277 0H26.8368L15.9277 6.76364L15.9277 0Z" fill="#012169"/>
<path fill-rule="evenodd" clip-rule="evenodd" d="M8.07259 0H-3.05469L8.07259 6.76364V0Z" fill="#012169"/>
<path fill-rule="evenodd" clip-rule="evenodd" d="M2.5511 8.07273L-7.85449 1.82287L-7.85449 0L5.67278 8.07273H2.5511Z" fill="#C8102E"/>
<path fill-rule="evenodd" clip-rule="evenodd" d="M-7.85449 2.83594V8.0723H0.872781L-7.85449 2.83594Z" fill="#012169"/>
</g>
<defs>
<clipPath id="clip0_879_22052">
<rect width="24" height="24" rx="12" fill="white"/>
</clipPath>
</defs>
</svg>
